<svg xmlns="http://www.w3.org/2000/svg" xmlns:xlink="http://www.w3.org/1999/xlink" width="1000" height="997.517"><path d="M0 0h997.517V538.49l-49.374 77.148 49.374 68.661v313.219H0v-507.63l30.859-35.488L0 420.454z" fill="#016fd0"/><path d="M193.64 695.099V538.49h165.82l17.791 23.192 18.379-23.192h601.887v145.809s-15.74 10.644-33.945 10.801H630.295l-20.058-24.687V695.1h-65.73v-42.142s-8.979 5.882-28.39 5.882h-22.373v36.259h-99.52l-17.765-23.69-18.038 23.69zM0 420.454l37.393-87.177h64.668l21.221 48.833v-48.833h80.388l12.633 35.295 12.247-35.295h360.857v17.744s18.97-17.744 50.146-17.744l117.085.409 20.855 48.194v-48.603h67.273l18.515 27.683v-27.683h67.89v156.609h-67.89l-17.744-27.773v27.773h-98.838l-9.94-24.687h-26.571l-9.778 24.687h-67.029c-26.826 0-43.974-17.382-43.974-17.382v17.382H488.343L468.285 465.2v24.687H92.481L82.548 465.2H56.061l-9.863 24.687H0z" fill="#fff"/><g fill="#016fd0"><path d="M50.628 352.584L.193 469.848h32.836l9.306-23.482h54.1l9.258 23.482h33.559L88.864 352.584H50.628zm18.66 27.291l16.49 41.033H52.75l16.538-41.033zm73.435 89.954V352.564l46.662.173 27.14 75.604 26.49-75.778h46.288v117.264h-29.316v-86.405l-31.076 86.405h-25.71l-31.162-86.405v86.405zm166.638 0V352.564h95.663v26.23h-66.038v20.058h64.495v24.687h-64.495v20.83h66.038v25.459zm112.636-117.245v117.264h29.316v-41.66h12.344l35.15 41.66h35.825l-38.574-43.203c15.831-1.336 32.161-14.923 32.161-36.018 0-24.677-19.368-38.043-40.985-38.043h-65.238zm29.316 26.23h33.511c8.039 0 13.887 6.288 13.887 12.344 0 7.791-7.577 12.344-13.453 12.344h-33.945v-24.687zm118.807 91.015h-29.933V352.564h29.933zm70.975 0h-6.461c-31.262 0-50.242-24.629-50.242-58.15 0-34.349 18.768-59.114 58.246-59.114h32.402v27.773h-33.587c-16.026 0-27.36 12.507-27.36 31.63 0 22.71 12.96 32.248 31.63 32.248h7.715zm63.792-117.245l-50.435 117.264h32.836l9.306-23.482h54.1l9.258 23.482h33.559l-50.387-117.264h-38.236zm18.66 27.291l16.49 41.033h-33.029l16.538-41.033zm73.386 89.954V352.564h37.272l47.59 73.676v-73.676h29.316v117.264h-36.066l-48.796-75.604v75.604zM213.699 675.041V557.777h95.663v26.23h-66.038v20.058h64.495v24.687h-64.495v20.83h66.038v25.459zm468.748 0V557.777h95.663v26.23h-66.038v20.058h64.187v24.687h-64.187v20.83h66.038v25.459zm-369.373 0l46.578-57.909-47.687-59.355h36.934l28.4 36.693 28.496-36.693h35.488l-47.06 58.632 46.664 58.632h-36.929l-27.575-36.115-26.905 36.115zm131.295-117.245V675.06h30.088v-37.03h30.859c26.111 0 45.903-13.852 45.903-40.792 0-22.316-15.523-39.442-42.094-39.442h-64.756zm30.088 26.519h32.498c8.435 0 14.465 5.17 14.465 13.501 0 7.826-5.999 13.501-14.562 13.501h-32.402v-27.002zm89.491-26.538v117.264h29.316v-41.66h12.344l35.15 41.66h35.825l-38.574-43.203c15.831-1.336 32.161-14.923 32.161-36.018 0-24.676-19.368-38.043-40.985-38.043h-65.238zm29.316 26.23h33.511c8.039 0 13.887 6.288 13.887 12.343 0 7.791-7.577 12.344-13.453 12.344h-33.945v-24.687z"/><use xlink:href="#B"/><use xlink:href="#B" x="107.597"/></g><defs ><path id="B" d="M791.687 675.041v-25.459h58.671c8.681 0 12.44-4.691 12.44-9.836 0-4.93-3.747-9.913-12.44-9.913h-26.513c-23.046 0-35.88-14.041-35.88-35.121 0-18.802 11.753-36.934 45.999-36.934h57.089l-12.344 26.384h-49.374c-9.438 0-12.344 4.953-12.344 9.682 0 4.861 3.59 10.222 10.801 10.222h27.773c25.69 0 36.838 14.572 36.838 33.656 0 20.516-12.422 37.32-38.236 37.32z"/></defs></svg>