<svg xmlns="http://www.w3.org/2000/svg" width="1000.046" height="323.653"><path d="M433.352 318.984h-81.011l50.67-313.305h81.006zM727.023 13.339C711.045 6.999 685.701 0 654.363 0c-80.001 0-136.336 42.66-136.682 103.652-.664 45 40.335 69.993 70.999 84.998 31.342 15.332 41.996 25.339 41.996 39.006-.319 20.989-25.326 30.664-48.65 30.664-32.343 0-49.673-4.988-76.009-16.666l-10.667-5.006-11.336 70.33c19 8.656 54.006 16.338 90.349 16.674 85.002 0 140.341-42 140.997-106.997.323-35.666-21.326-62.994-68-85.326-28.334-14.335-45.686-24.002-45.686-38.669.332-13.334 14.676-26.992 46.661-26.992 26.336-.669 45.686 5.661 60.345 11.996l7.327 3.327 11.017-67.654h0zm107.671 194.652l32.343-87.66c-.337.669 6.658-18.331 10.658-29.995l5.661 26.996 18.672 90.659h-67.335 0zM934.691 5.679h-62.662c-19.323 0-34.004 5.661-42.342 25.995l-120.33 287.305h85.002l17.002-46.997h104.011l9.666 46.997h75.008l-65.355-313.3h0zm-650.013 0l-79.336 213.644-8.669-43.329C182.005 125.997 136.004 71.677 84.67 44.667l72.669 273.984h85.667L370.34 5.679h-85.662 0z" fill="#00579f"/><path d="M131.672 5.679H1.333L0 12.01c101.672 25.999 169.008 88.67 196.673 163.997L168.339 32.015c-4.665-20.01-19-25.676-36.667-26.336h0z" fill="#faa61a"/></svg>