<svg xmlns="http://www.w3.org/2000/svg" viewBox="0 0 771.344 163.09" fill-rule="evenodd" xmlns:v="https://vecta.io/nano"><path d="M13.295 0c7.312 0 13.293 5.982 13.293 13.295v136.499c0 7.313-5.981 13.296-13.293 13.296S0 157.107 0 149.794V13.295C0 5.982 5.983 0 13.295 0h0zm53.156 0c7.313 0 13.294 5.982 13.294 13.295v136.499c0 7.313-5.981 13.296-13.294 13.296s-13.294-5.982-13.294-13.296V13.295C53.158 5.982 59.14 0 66.451 0h0z" fill="#e63329"/><path d="M749.652 49.384V38.593h4.97v-2.247h-12.657v2.247h4.952v10.791h2.735 0zm17.08-11.441l-3.279 8.463c-.188.399-.188.413-.374.002l-3.281-8.467c-.11-.275-.235-.548-.394-.801-.596-.871-1.508-.998-2.493-.911-1.012.103-1.697.783-1.725 1.809v11.346h2.737l-.054-10.055v-.005c.033-.326.123-.031.164.072l.012.028 3.246 8.469c.369 1.047.894 1.652 2.082 1.634 1.11-.055 1.485-.697 1.864-1.63l3.248-8.475c.045-.133.186-.468.194-.094l-.074 10.055h2.737V38.036c-.055-1.222-.846-1.726-1.994-1.829-1.345-.037-2.125.445-2.616 1.736h0zM661.067 140.352h57.396c15.132-.096 23.389-9.183 23.312-24.216-.042-8.344-2.749-15.941-9.981-20.846-5.685-3.403-11.912-5.164-18.232-6.996l-18.631-5.193c-3.246-.933-7.093-1.925-9.847-3.929-1.637-1.5-1.858-2.649-1.89-4.812.061-4.043 1.769-5.402 6.709-5.402h47.977v-19.37h-50.907c-13.065.053-23.497 3.906-26.452 17.826-1.495 8.569-.447 17.867 5.534 24.564 5.081 5.046 11.728 7.47 18.504 9.344l16.557 4.542c4.123 1.134 8.326 2.207 12.315 3.766 1.181.501 2.49 1.108 3.149 2.276.955 1.692 1.228 4.974.237 6.723-.989 1.743-2.944 2.301-5.04 2.354h-50.711v19.369h.001zM577.866 68.63c8.768.05 18.351 1.796 19.338 12.201.065 1.998.274 3.268-1.924 3.48h-36.866c.12-3.966.694-7.978 3.593-11.005 3.597-3.755 9.514-4.676 15.859-4.676h0zm-5.93 52.298c-5.497-.385-9.716-1.621-12.083-6.983-1.045-3.302-1.299-6.813-1.443-10.263h47.545c6.641-.102 11.783-3.029 14.324-9.316 1.307-3.824 1.577-8.017 1.408-12.031-.413-9.769-2.953-18.633-10.464-25.115-9.515-7.545-21.701-7.959-33.324-7.959-12.303.089-25.367 1.23-34.718 10.4-8.843 9.488-9.159 22.35-9.23 34.619-.011 5.915.064 11.811.826 17.685.977 6.836 2.905 13.006 7.273 18.456 4.867 5.516 10.667 8.275 17.857 9.42 2.954.386 5.898.514 8.875.514h50.093v-19.369h-44.401l-2.538-.058h0zm-283.014-19.152v17.406c.02 2.201-1.359 2.167-3.139 2.167h-26.371c-5.606-.355-6.403-5.302-6.456-9.775.08-5.105.538-9.654 6.733-9.798h29.233 0zm-54.036-51.821v19.371h44.721c2.686.025 5.043.466 7.025 2.402 1.833 2.107 2.293 4.386 2.291 7.076v3.603h-34.948c-5.015.033-9.426.706-13.886 3.147-9.345 5.872-11.442 14.814-11.533 25.198.068 10.444 1.724 21.688 11.565 27.428 4.495 2.199 8.939 2.54 13.858 2.54h41.062c11.476-.082 17.585-5.439 17.629-16.815V79.254c-.114-6.379-1.096-12.386-4.147-18.051-4.85-7.959-13.387-11.044-22.386-11.248h-51.251 0zm-89.07 28.719V48.609c.006-1.259-.097-2.656.77-3.667 1.008-.859 2.069-.772 3.332-.772h34.563c8.103.073 12.987 1.953 14.521 10.258.762 5.285.756 11.105-.508 16.311-2.137 7.277-7.891 7.936-14.333 7.936h-38.345v-.001zm0 62.047V100.48h50.865c7.222-.149 14.217-2.061 19.765-6.848 6.098-5.908 8.328-13.738 9.345-22.085.727-6.966.73-14.114-.042-21.077-.699-5.449-1.981-10.581-4.686-15.401-6.106-9.947-16.066-12.606-27.119-12.698h-1.178-54.052c-5.906.04-11.177 1.493-15.296 5.944-3.3 4.135-3.768 8.37-3.787 13.475v98.932h26.185v-.001zm183.929-81.745c-6.641 7.267-8.208 15.875-8.309 25.434v55.942h23.752v-50.89c.042-4.848.394-9.619 2.818-13.924 3.565-5.388 9.349-6.544 15.419-6.579h14.964v-19.37h-19.852c-11.001 0-20.712 1.835-28.792 9.387h0zm322.816 81.016h-23.746V21.637h23.746v118.355zm-125.986.36h-23.753V22.003h23.753v118.349zm-32.515.007h-23.75V22.003h23.75v118.356zm-56.261-38.949v17.405c.02 2.201-1.359 2.168-3.139 2.168h-26.372c-5.605-.355-6.403-5.303-6.456-9.776.082-5.104.539-9.653 6.734-9.797h29.233 0zm-54.037-51.821v19.37h44.72c2.686.025 5.043.466 7.026 2.402 1.831 2.107 2.292 4.387 2.29 7.077v3.601H402.85c-5.015.034-9.425.708-13.886 3.147-9.345 5.873-11.442 14.815-11.533 25.2.068 10.444 1.724 21.688 11.567 27.427 4.494 2.2 8.938 2.539 13.857 2.539h41.062c11.477-.081 17.585-5.438 17.629-16.813V78.887c-.113-6.379-1.096-12.386-4.146-18.05-4.85-7.959-13.388-11.044-22.386-11.248h-51.252 0z"/></svg>