<svg xmlns="http://www.w3.org/2000/svg" fill="#0091e2" viewBox="-5.724 -43.601 2000 600"><path d="M934.957 149.221c-10.479-.345-19.253 7.869-19.599 18.348-.014.417-.014.834 0 1.251v94.24c-45.47-36.517-111.933-29.258-148.449 16.211a105.6 105.6 0 0 0-23.264 66.153c-.996 58.292 45.451 106.354 103.744 107.351s106.354-45.451 107.351-103.743c.021-1.203.021-2.405 0-3.607V168.913a18.71 18.71 0 0 0-5.753-14.061c-3.741-3.658-8.799-5.655-14.03-5.538m-24.799 221.525c-6.741 15.855-19.321 28.513-35.136 35.352a66.49 66.49 0 0 1-51.844 0c-15.782-6.775-28.314-19.418-34.951-35.26-6.935-16.383-6.935-34.876 0-51.258 6.651-15.789 19.187-28.368 34.951-35.075a66.49 66.49 0 0 1 51.844 0c15.814 6.839 28.395 19.495 35.136 35.352a65.31 65.31 0 0 1 0 51.074m245.186-100.334c-41.243-41.206-108.082-41.176-149.288.067a105.56 105.56 0 0 0-30.886 74.574c-.996 58.293 45.451 106.355 103.744 107.352s106.354-45.452 107.351-103.744c.021-1.202.021-2.404 0-3.607a108.62 108.62 0 0 0-7.815-40.521c-5.326-12.813-13.185-24.418-23.106-34.121m-13.63 100.056c-3.371 7.823-8.17 14.95-14.153 21.015-6.036 6.063-13.166 10.929-21.015 14.337-16.558 7.017-35.254 7.017-51.812 0-15.8-6.76-28.347-19.406-34.982-35.259-6.935-16.383-6.935-34.876 0-51.259 6.67-15.765 19.218-28.312 34.982-34.982 16.558-7.017 35.254-7.017 51.812 0a67.67 67.67 0 0 1 21.015 14.338 68.51 68.51 0 0 1 14.153 21.014 65.66 65.66 0 0 1 0 51.074m450.033-111.656c.013-2.595-.521-5.163-1.568-7.538-1.066-2.279-2.513-4.36-4.277-6.154-1.742-1.816-3.836-3.261-6.153-4.246a19.97 19.97 0 0 0-7.723-1.508c-3.742-.025-7.411 1.044-10.554 3.077l-112.7 73.319V169.097c.1-5.27-1.982-10.347-5.753-14.03a18.83 18.83 0 0 0-13.938-5.846c-10.857-.068-19.715 8.679-19.783 19.537v.247 261.983c-.063 5.236 2.016 10.271 5.754 13.938 3.653 3.823 8.741 5.943 14.029 5.846 5.241.085 10.276-2.037 13.876-5.846 3.738-3.667 5.817-8.702 5.754-13.938v-67.934l22.983-15.076 87.103 97.81a18.21 18.21 0 0 0 13.168 5.076c2.65.03 5.278-.483 7.723-1.508a18.06 18.06 0 0 0 6.153-4.215 21.52 21.52 0 0 0 4.276-6.338c1.048-2.375 1.582-4.943 1.57-7.538.012-5.112-1.938-10.035-5.446-13.753l-80.979-91.226 78.949-51.258c5.099-3.523 7.963-9.475 7.536-15.66m-326.995 39.137a67.46 67.46 0 0 1 21.138-14.153c8.16-3.472 16.945-5.23 25.813-5.169a62.9 62.9 0 0 1 22.983 4.123c7.353 2.957 14.163 7.116 20.152 12.307 3.641 2.9 8.176 4.445 12.83 4.369 5.304.223 10.459-1.786 14.215-5.538a19.48 19.48 0 0 0 5.568-14.153 19.23 19.23 0 0 0-6.8-14.892c-18.885-16.903-43.454-26.056-68.796-25.629-58.301 0-105.562 47.262-105.562 105.562-.146 58.216 46.929 105.527 105.145 105.674 25.412.063 49.992-9.056 69.214-25.679a19.81 19.81 0 0 0 6.153-14.491c.346-10.479-7.868-19.253-18.347-19.599-.417-.014-.835-.014-1.252 0-4.485.02-8.849 1.463-12.461 4.123a66.96 66.96 0 0 1-19.968 12.152c-7.345 2.762-15.137 4.139-22.983 4.062-8.867.062-17.653-1.697-25.813-5.169-7.873-3.346-15.045-8.147-21.137-14.152-25.862-25.708-25.988-67.514-.281-93.376l.281-.28m718.418-45.628c-3.813-3.578-8.345-6.304-13.292-8-5.657-2.031-11.532-3.394-17.506-4.061-5.91-.726-11.859-1.096-17.814-1.108-12.084-.037-24.08 2.045-35.443 6.154a108.26 108.26 0 0 0-30.768 17.353v-3.938c-.431-10.883-9.603-19.357-20.486-18.927-10.279.406-18.521 8.647-18.927 18.927v171.897c.43 10.884 9.602 19.357 20.485 18.928 10.28-.406 18.521-8.647 18.928-18.928v-85.934a65.03 65.03 0 0 1 5.168-25.844c3.318-7.836 8.113-14.96 14.123-20.983 6.047-6.003 13.178-10.806 21.014-14.153 8.172-3.472 16.967-5.23 25.845-5.169 8.825-.087 17.587 1.511 25.813 4.707 2.599 1.251 5.427 1.953 8.308 2.062 2.649.024 5.276-.489 7.723-1.508a18.45 18.45 0 0 0 6.153-4.245c1.758-1.793 3.194-3.874 4.246-6.153 1.068-2.434 1.614-5.065 1.6-7.723.191-4.952-1.732-9.751-5.291-13.2m-183.037 51.843c-16.765-39.188-55.187-64.69-97.81-64.919-58.283-.017-105.545 47.217-105.562 105.501v.03c-.011 58.318 47.256 105.604 105.573 105.614 25.317.005 49.795-9.087 68.97-25.619.277-.276.708-.646.77-.738 1.719-1.392 3.222-3.029 4.461-4.861 6.336-9.125 4.076-21.658-5.045-27.998-7.646-4.967-17.698-4.065-24.338 2.185l-2.799 2.554-.277.246a62.74 62.74 0 0 1-18.953 11.076c-7.32 2.58-15.037 3.851-22.798 3.754-7.153.035-14.264-1.108-21.046-3.385a68.12 68.12 0 0 1-18.46-9.507c-5.612-4.105-10.544-9.068-14.614-14.707-4.158-5.757-7.34-12.16-9.415-18.952h149.253c5.237.119 10.299-1.891 14.029-5.569a18.46 18.46 0 0 0 5.754-14.03 105.84 105.84 0 0 0-7.723-40.612m-161.345 21.012a62.01 62.01 0 0 1 9.229-18.952c4.095-5.648 9.059-10.612 14.707-14.707 5.712-4.09 12.008-7.295 18.676-9.507a66.07 66.07 0 0 1 20.922-3.385c7.07-.008 14.095 1.136 20.799 3.385 13.307 4.422 24.901 12.887 33.167 24.214 4.221 5.737 7.445 12.145 9.538 18.952h-127.038zm277.213 96.302c-7.543.119-13.562 6.331-13.443 13.875s6.332 13.562 13.875 13.443c7.495-.118 13.494-6.254 13.445-13.75-.085-7.578-6.297-13.652-13.875-13.568m-.002 24.398c-5.975.272-11.039-4.352-11.311-10.326s4.352-11.04 10.327-11.312 11.039 4.352 11.311 10.327a9.94 9.94 0 0 1 .011.573 10.37 10.37 0 0 1-9.992 10.731c-.115.005-.23.007-.346.007m3.139-10.399v-.185c1.512-.292 2.65-1.544 2.8-3.076.057-1.175-.432-2.311-1.323-3.077-1.445-.765-3.076-1.106-4.707-.984-1.743-.024-3.484.12-5.2.431v13.538h3.077v-5.446h1.477c1.754 0 2.554.646 2.83 2.154.184 1.143.536 2.252 1.047 3.292h3.415a10.38 10.38 0 0 1-1.016-3.385 3.94 3.94 0 0 0-2.462-3.292m-3.723-.985h-1.508v-3.908c.583-.069 1.172-.069 1.754 0 1.97 0 2.893.831 2.893 2.062s-1.415 2-3.076 2M707.494 193.557c-1.938-1.539-20.029-15.199-58.181-15.199a185.56 185.56 0 0 0-30.061 2.584c-7.384-50.612-49.228-75.288-51.104-76.395l-10.245-5.908-6.738 9.723a137.32 137.32 0 0 0-18.214 42.582c-6.831 28.891-2.677 56.027 11.999 79.226-17.722 9.876-46.151 12.307-51.904 12.522H22.367c-12.294.017-22.27 9.952-22.337 22.245a338.69 338.69 0 0 0 20.614 120.946c16.214 42.521 40.336 73.842 71.719 93.01 35.167 21.537 92.302 33.844 157.067 33.844a468.88 468.88 0 0 0 87.226-7.907 364.65 364.65 0 0 0 113.839-41.352 312.97 312.97 0 0 0 77.688-63.596c37.29-42.213 59.505-89.226 76.026-131.007h6.584c40.828 0 65.935-16.338 79.78-30.029a87.08 87.08 0 0 0 21.045-31.167l2.923-8.553-7.047-5.569zM65.995 228.909h63.073a5.51 5.51 0 0 0 5.507-5.507h0V167.22a5.51 5.51 0 0 0-5.476-5.538h-.031-63.073a5.51 5.51 0 0 0-5.507 5.507v.031 56.181a5.51 5.51 0 0 0 5.507 5.508h0m86.918 0h63.073a5.51 5.51 0 0 0 5.507-5.507h0V167.22a5.51 5.51 0 0 0-5.477-5.538h-.031-63.073a5.54 5.54 0 0 0-5.538 5.538v56.181a5.54 5.54 0 0 0 5.539 5.508m88.24 0h63.073a5.51 5.51 0 0 0 5.507-5.507h0V167.22a5.51 5.51 0 0 0-5.477-5.538h-.031-63.073a5.51 5.51 0 0 0-5.507 5.507v.031 56.181a5.51 5.51 0 0 0 5.508 5.508h0m87.195 0h63.073a5.54 5.54 0 0 0 5.538-5.507V167.22a5.54 5.54 0 0 0-5.538-5.538h0-63.073a5.51 5.51 0 0 0-5.507 5.507v.031 56.181a5.51 5.51 0 0 0 5.507 5.508h0m-175.435-80.826h63.073a5.54 5.54 0 0 0 5.507-5.538V86.364a5.51 5.51 0 0 0-5.507-5.507h0-63.073a5.54 5.54 0 0 0-5.538 5.507v56.181a5.57 5.57 0 0 0 5.538 5.538m88.24 0h63.073a5.54 5.54 0 0 0 5.507-5.538V86.364a5.51 5.51 0 0 0-5.507-5.507h0-63.073a5.51 5.51 0 0 0-5.507 5.507h0v56.181a5.54 5.54 0 0 0 5.507 5.538m87.195 0h63.073a5.57 5.57 0 0 0 5.538-5.538V86.364a5.54 5.54 0 0 0-5.538-5.507h-63.073a5.51 5.51 0 0 0-5.507 5.507h0v56.181a5.54 5.54 0 0 0 5.507 5.538m0-80.856h63.073a5.54 5.54 0 0 0 5.538-5.507V5.507A5.54 5.54 0 0 0 391.421 0h-63.073a5.51 5.51 0 0 0-5.507 5.507h0v56.212a5.51 5.51 0 0 0 5.507 5.508m87.964 161.682h63.073a5.54 5.54 0 0 0 5.538-5.507V167.22a5.54 5.54 0 0 0-5.538-5.538h0-63.073a5.51 5.51 0 0 0-5.507 5.507v.031 56.181a5.51 5.51 0 0 0 5.507 5.508"/></svg>