<svg xmlns="http://www.w3.org/2000/svg" viewBox="0 0 800 300"><g transform="matrix(1.15 0 0 1.15 -34.85 11.15)" fill="none"><g stroke-width="23.478"><path d="M60 170V70a50 50 0 0 1 50-50h20" stroke="#f50"/><path d="M60 170v-35a50 50 0 0 1 50-50h20" stroke="#c00"/></g><g stroke-width="13.913"><circle cx="140" cy="20" r="16.522" stroke="#f50"/><g stroke="#c00"><circle cx="140" cy="85" r="16.522"/><circle cx="60" cy="180" r="16.522"/></g></g></g><g fill="#f50"><use href="#B"/><path d="M279.851 240.85V121.17h18.133v32.64l-1.813-7.027q4.987-12.92 16.773-19.72 11.787-7.027 29.24-7.027v18.587q-1.133-.227-2.267-.227-1.133-.227-2.267-.227-17.907 0-28.333 11.107-10.427 10.88-10.427 31.28v60.293zm125.297 45.107c-10.88 0-21.458-1.587-31.733-4.76-10.125-3.022-18.436-7.404-24.933-13.147l9.52-14.733c5.591 4.987 12.467 8.916 20.627 11.787 8.311 2.871 16.925 4.307 25.84 4.307 14.658 0 25.462-3.476 32.413-10.427 6.951-6.8 9.394-17.34 10.427-31.507l2-27.427 2.267-22.213-1.587-22.213 8.72-9.747c11.18 15.476 7.413 50.817 7.413 79.56 0 20.853-5.138 36.116-15.413 45.787-10.276 9.822-25.462 14.733-45.56 14.733zm1.28-49.867c-11.485 0-21.836-2.418-31.053-7.253-9.067-4.987-16.245-11.862-21.533-20.627s-7.933-18.889-7.933-30.373 2.644-21.533 7.933-30.147c5.289-8.764 12.467-15.565 21.533-20.4 9.218-4.836 19.569-7.253 31.053-7.253 10.427 0 23.796 2.191 32.107 6.573 8.462 4.231 15.187 10.653 20.173 19.267 5.138 8.613 5.707 19.267 5.707 31.96 0 12.845-4.569 23.573-9.707 32.187-4.987 8.613-11.711 15.111-20.173 19.493-8.311 4.382-17.68 6.573-28.107 6.573zm-.187-16.773c8.462 0 15.942-1.738 22.44-5.213s11.56-8.311 15.187-14.507c3.778-6.347 5.667-13.6 5.667-21.76s-1.889-15.338-5.667-21.533c-3.627-6.196-8.689-10.956-15.187-14.28-6.498-3.476-13.978-5.213-22.44-5.213-8.311 0-15.716 1.738-22.213 5.213-6.498 3.324-11.635 8.084-15.413 14.28-3.627 6.196-5.44 13.373-5.44 21.533s1.813 15.413 5.44 21.76c3.778 6.196 8.916 11.031 15.413 14.507s13.902 5.213 22.213 5.213zm195.621 66.64c-4.987 0-9.747-.604-14.28-1.813s-8.311-3.098-11.333-5.667l6.347-14.28c4.684 3.778 10.729 5.667 18.133 5.667 6.044 0 10.653-1.813 13.827-5.44 3.324-3.627 4.987-9.067 4.987-16.32V141.17h19.04v106.933c0 11.636-3.173 20.853-9.52 27.653s-15.413 10.2-27.2 10.2z"/><use href="#B" x="515.006"/><path d="M547.138 242.247q-18.813 0-33.32-7.707-14.28-7.933-22.44-21.76-7.933-13.827-7.933-31.507 0-17.68 7.707-31.507 7.707-13.827 21.08-21.533 13.6-7.933 30.827-7.933 16.32 0 29.24 7.253 12.92 7.253 20.627 20.4 7.933 12.92 8.387 30.373l-101.773 19.947-.907-13.827 91.574-17.68-7.027 9.973q0-11.333-5.213-20.4-4.987-9.067-14.053-14.28-9.067-5.44-20.853-5.44-12.013 0-21.533 5.44-9.293 5.44-14.507 15.187-5.213 9.747-5.213 22.893 0 13.827 5.667 24.253 5.893 10.2 16.093 15.867 10.427 5.44 24.027 5.44 10.88 0 19.947-3.627 9.067-3.853 15.64-11.56l10.427 12.24q-7.707 9.52-19.72 14.507-12.013 4.987-26.747 4.987z"/></g><circle cx="628" cy="108.9" r="17.25" fill="none" stroke="#f50" stroke-width="13.8"/><defs ><path id="B" d="M202.327 241.983q-17.68 0-31.733-7.707-13.827-7.933-21.987-21.76-7.933-13.827-7.933-31.507 0-17.907 7.933-31.507 8.16-13.827 21.987-21.533 13.827-7.933 31.733-7.933 17.68 0 31.507 7.933 14.053 7.707 21.987 21.533 7.933 13.6 7.933 31.507 0 17.68-7.933 31.507-7.933 13.827-21.987 21.76-13.827 7.707-31.507 7.707zm0-16.547q12.24 0 21.76-5.44 9.52-5.667 14.96-15.64 5.667-10.2 5.667-23.347 0-13.373-5.667-23.347-5.44-9.973-14.96-15.413-9.52-5.44-21.76-5.44-12.24 0-21.76 5.44-9.52 5.44-15.187 15.413-5.44 9.973-5.44 23.347 0 13.147 5.44 23.347 5.667 9.973 15.187 15.64 9.52 5.44 21.76 5.44z"/></defs></svg>