<svg xmlns="http://www.w3.org/2000/svg" xmlns:svg="http://www.w3.org/2000/svg" id="svg3" width="100" height="62.5" version="1.1" viewBox="-3 -8 104 65"><path id="path1" fill="#4e7896" d="m 10.955791,35.562 c 0,0 -1.7669998,1.075 1.23,1.383 3.6,0.46 5.53,0.384 9.524,-0.384 0,0 1.075,0.69 2.535,1.23 -8.987,3.84 -20.3539998,-0.23 -13.288,-2.227 z M 9.8037912,30.57 c 0,0 -1.92,1.46 1.0749998,1.767 3.917,0.384 7,0.46 12.29,-0.614 0,0 0.69,0.768 1.843,1.152 -10.83,3.226 -22.9659998,0.307 -15.2079998,-2.304 z m 21.1999998,8.756 c 0,0 1.306,1.075 -1.46,1.92 -5.146,1.536 -21.5829998,1.997 -26.1919998,0 -1.613,-0.69 1.46,-1.7 2.458,-1.843 1,-0.23 1.536,-0.23 1.536,-0.23 -1.766,-1.23 -11.752,2.535 -5.07,3.6 18.3569998,2.995 33.4879998,-1.306 28.7259998,-3.456 z m -19.204,-13.979 c 0,0 -8.3719998,1.997 -2.9959998,2.688 2.3039998,0.307 6.8359998,0.23 11.0599998,-0.077 3.456,-0.307 6.913,-0.922 6.913,-0.922 0,0 -1.23,0.538 -2.074,1.075 -8.526,2.227 -24.88599983,1.23 -20.1999998,-1.075 3.994,-1.92 7.2969998,-1.7 7.2969998,-1.7 z m 14.978,8.372 c 8.602,-4.455 4.608,-8.756 1.843,-8.218 -0.69,0.154 -1,0.307 -1,0.307 0,0 0.23,-0.46 0.768,-0.614 5.453,-1.92 9.755,5.76 -1.767,8.756 0,0 0.077,-0.077 0.154,-0.23 z m -14.132,12.135 c 8.295,0.538 20.97,-0.307 21.276,-4.224 0,0 -0.614,1.536 -6.836,2.688 -7.066,1.306 -15.822,1.152 -20.9699998,0.307 0,0 1.075,0.922 6.5299998,1.23 z"/><path id="path2" fill="#f58219" d="m 21.554791,0 c 0,0 4.762,4.84 -4.532,12.136 -7.4499998,5.914 -1.7,9.294 0,13.134 -4.378,-3.917 -7.5269998,-7.373 -5.377,-10.6 3.15,-4.762 11.828,-7.066 9.908,-14.67 z m -2.458,22.044 c 2.227,2.535 -0.615,4.84 -0.615,4.84 0,0 5.684,-2.92 3.072,-6.53 -2.38,-3.456 -4.224,-5.146 5.76,-10.907 0,0 -15.746,3.917 -8.218,12.596 z"/><path id="path3" fill="#4e7896" d="M 68.317791,31.162 V 19.485 c 0,-2.98 -1.668,-5.004 -5.838,-5.004 -2.383,0 -4.41,0.596 -6.196,1.31 l 0.596,2.145 c 1.31,-0.477 2.98,-0.953 4.766,-0.953 2.264,0 3.336,0.953 3.336,2.86 v 1.55 h -1.182 c -5.72,0 -8.34,2.145 -8.34,5.6 0,2.86 1.787,4.528 5.004,4.528 2.026,0 3.575,-0.953 5.004,-2.145 l 0.238,1.787 h 2.62 z m -3.338,-3.812 c -1.19,1.072 -2.502,1.668 -3.694,1.668 -1.55,0 -2.502,-0.953 -2.502,-2.62 0,-1.667 0.953,-2.86 4.766,-2.86 h 1.43 v 3.813 z m 14.536,3.813 h -4.17 l -5.003,-16.323 h 3.575 l 3.098,10.01 0.715,2.98 c 1.55,-4.29 2.74,-8.698 3.217,-12.987 h 3.574 c -0.953,5.362 -2.62,11.2 -5.004,16.323 z m 19.302,0 V 19.485 c 0,-2.98 -1.668,-5.004 -5.84,-5.004 -2.383,0 -4.408,0.596 -6.196,1.31 l 0.477,2.145 c 1.43,-0.477 3.098,-0.953 4.885,-0.953 2.264,0 3.336,0.953 3.336,2.86 v 1.55 h -1.19 c -5.72,0 -8.34,2.145 -8.34,5.6 0,2.86 1.668,4.528 4.885,4.528 2.145,0 3.694,-0.953 5.123,-2.145 l 0.238,1.787 h 2.62 z m -3.336,-3.813 c -1.19,1.072 -2.502,1.668 -3.694,1.668 -1.55,0 -2.502,-0.953 -2.502,-2.62 0,-1.667 0.953,-2.86 4.766,-2.86 h 1.43 v 3.813 z m -43.728,6.553 c -0.953,1.43 -2.383,2.502 -4.17,3.098 l -1.55,-1.906 c 1.192,-0.715 2.383,-1.787 2.86,-2.74 0.477,-0.834 0.596,-2.026 0.596,-4.766 V 9 h 3.575 v 18.35 c 0,3.694 -0.358,5.123 -1.31,6.553 z"/></svg>