<svg xmlns="http://www.w3.org/2000/svg" xmlns:svg="http://www.w3.org/2000/svg" id="svg2211" width="509" height="318" version="1.0"><path d="m 27.536666,296.27463 c 0,-1.71269 56.502319,-70.55689 57.693543,-70.29562 0.680499,0.14924 25.916631,11.01968 56.080271,24.15652 51.51584,22.43611 54.93297,23.76293 56.32595,21.87034 2.10665,-2.86219 9.36253,-18.2507 13.20054,-27.99612 l 3.25614,-8.26796 -5.48561,-3.04153 c -7.77397,-4.31034 -19.17592,-13.90955 -26.3158,-22.15503 -6.51535,-7.52427 -18.26703,-25.67926 -18.26703,-28.22046 0,-0.84113 3.73419,2.98322 8.29818,8.49853 12.81967,15.49183 42.36099,39.73291 44.21625,36.28305 2.20155,-4.09379 3.62464,-16.17921 3.5541,-30.18293 -0.0862,-17.09583 -2.29638,-30.40478 -8.10029,-48.77536 l -3.25223,-10.29392 -16.07955,-5.1248 c -8.84377,-2.81864 -17.70939,-5.64428 -19.7014,-6.2792 -6.94703,-2.21425 -2.60079,-2.09504 7.56975,0.20763 12.16056,2.75321 24.51286,5.07866 32.16157,6.05475 6.73456,0.85945 8.21641,-0.48027 8.93658,-8.07937 0.9182,-9.68888 -5.24841,-36.446771 -11.46983,-49.769288 -2.48304,-5.317186 -3.60395,-6.463726 -8.57522,-8.771297 -16.54839,-7.681434 -68.34618,-14.875835 -90.34215,-12.547976 -9.50842,1.006288 -19.275662,3.34894 -22.319752,5.353342 -0.85799,0.564957 5.274708,2.166753 15.832612,4.135313 9.47821,1.767242 16.3852,3.381105 15.34891,3.586365 -1.03629,0.205259 -15.93002,-1.454171 -33.097162,-3.687624 -30.138258,-3.920998 -31.287848,-3.992134 -33.387011,-2.066 -4.376679,4.015907 -10.673733,14.993061 -11.97015,20.866589 -1.255144,5.686595 -1.166852,6.345555 1.625637,12.132567 4.759762,9.863869 13.610485,17.041169 33.750589,27.369289 9.523585,4.88383 17.084683,9.11385 16.802423,9.40003 -0.28226,0.28618 -8.409588,-2.7905 -18.060755,-6.83705 l -17.547575,-7.35739 -25.749192,7.30591 c -14.16206,4.01826 -26.2246611,7.30591 -26.8057611,7.30591 -0.664118,0 -1.056559,-17.34678 -1.056559,-46.701612 0,-44.972262 0.08375,-46.876979 2.261279,-51.43773 1.327405,-2.780172 3.9203171,-5.782095 6.2784481,-7.268818 l 4.017168,-2.53269 117.925631,-0.332731 c 64.8591,-0.183001 120.54903,-0.01706 123.75541,0.368757 7.22555,0.869439 13.74622,6.233607 15.47069,12.726825 0.74337,2.799081 1.02276,45.369926 0.82933,126.365249 l -0.29172,122.14409 -2.49796,4.07302 c -1.46632,2.39092 -4.42709,5.01988 -7.16913,6.36574 -4.63505,2.27498 -5.57251,2.29272 -121.16016,2.29272 -64.068964,0 -116.489004,-0.37801 -116.489004,-0.84003 z" style="fill:#000;stroke-width:1.09947" id="path2228"/><path style="fill:#000" id="path2224"/><path d="m 296.08759,176.56381 c -1.9545,-1.9545 -1.95848,-1.99244 -1.95848,-18.64307 0,-15.67117 0.10045,-16.81228 1.65371,-18.78694 2.5043,-3.18371 6.43412,-2.57057 8.47043,1.32158 0.70978,1.35665 0.85254,1.34673 2.81294,-0.19531 5.03211,-3.95827 14.25843,-3.81351 18.10793,0.28409 l 1.8177,1.93485 3.56239,-2.51101 c 3.00563,-2.11857 4.27221,-2.5067 8.1041,-2.48343 5.43738,0.033 9.18134,1.80356 11.35617,5.37039 1.39825,2.2932 1.55784,4.08445 1.56052,17.51509 0.002,13.89897 -0.11027,15.07389 -1.59282,16.55644 -2.00261,2.0026 -5.13138,2.04973 -7.07457,0.10654 -1.30089,-1.30088 -1.53513,-3.16536 -1.85188,-14.73994 -0.31224,-11.4103 -0.56585,-13.47525 -1.826,-14.8677 -1.64833,-1.82139 -3.42888,-2.02879 -6.27689,-0.73115 -3.21694,1.46573 -3.9396,4.28552 -4.44191,17.33247 -0.41873,10.87555 -0.64302,12.35966 -2.01986,13.36484 -1.98805,1.4514 -4.43831,1.43888 -6.5403,-0.0334 -1.54041,-1.07893 -1.69283,-2.14483 -2.08237,-14.5617 -0.23116,-7.36864 -0.6799,-14.02898 -0.99719,-14.80075 -0.69263,-1.68474 -3.64549,-2.5473 -6.37504,-1.86222 -3.92879,0.98606 -4.76152,3.69636 -5.19645,16.91297 -0.34409,10.45645 -0.60793,12.3538 -1.91894,13.79959 -2.0222,2.2301 -4.89191,2.11905 -7.29319,-0.28223 z m 75.61488,0.78579 c -8.38372,-2.61794 -12.94854,-9.50983 -12.93559,-19.52992 0.006,-4.68755 0.43634,-6.94751 1.93602,-10.16849 6.91931,-14.86129 31.23264,-13.50363 36.72045,2.05048 1.585,4.49237 1.57137,11.57878 -0.0313,16.28241 -3.30604,9.7027 -14.77099,14.775 -25.68956,11.36552 z m 11.87189,-8.63747 c 3.51413,-2.19461 5.34099,-9.30686 3.88045,-15.1072 -1.24588,-4.94786 -4.39486,-7.88057 -8.52287,-7.93754 -4.35162,-0.0601 -6.47688,1.27675 -8.25464,5.19222 -3.09075,6.80725 -0.94354,16.23331 4.21247,18.4924 2.66446,1.16742 6.20881,0.90627 8.68459,-0.63988 z m 23.85669,8.21436 c -1.50114,-1.50114 -1.5958,-2.65967 -1.5958,-19.53018 v -17.93437 l 1.98893,-1.30321 c 2.73827,-1.79418 5.91665,-0.89117 7.00414,1.98994 l 0.84827,2.24732 3.29782,-2.32451 c 7.32865,-5.16571 17.27661,-3.21575 20.9711,4.11066 1.64738,3.26686 1.79528,4.65481 1.79528,16.84779 0,12.23458 -0.13106,13.45427 -1.65371,15.39001 -1.98734,2.52649 -4.89639,2.73337 -7.1232,0.50655 -1.4247,-1.4247 -1.59953,-2.68656 -1.63055,-11.76904 -0.0402,-11.77516 -0.82298,-16.83606 -2.8311,-18.30444 -1.96339,-1.43566 -5.97451,-1.31038 -8.21152,0.25647 -3.26645,2.28792 -4.08275,5.74384 -4.08275,17.28484 0,10.10923 -0.0951,10.74755 -1.8467,12.39309 -2.3036,2.16411 -4.85399,2.2153 -6.93021,0.13908 z m 55.24314,0.86181 c -3.85649,-0.98454 -8.68346,-4.46026 -10.94931,-7.88421 -4.09608,-6.18959 -4.27419,-17.44323 -0.3759,-23.75079 6.48946,-10.50018 23.55435,-12.10644 31.99105,-3.0112 4.03526,4.35025 5.06417,7.32366 5.06417,14.63477 0,7.31111 -1.02891,10.28452 -5.06417,14.63476 -4.46864,4.81744 -13.57548,7.18678 -20.66584,5.37667 z m 11.2638,-9.52616 c 2.59453,-2.29195 3.83726,-5.72219 3.81427,-10.52839 -0.0368,-7.6877 -3.44445,-12.08498 -9.3653,-12.08498 -3.65739,0 -6.80917,2.27854 -8.04994,5.81962 -1.41091,4.02666 -1.24616,10.2841 0.35516,13.48959 2.56008,5.1247 9.28572,6.80241 13.24581,3.30416 z m 14.87896,-32.42755 c 0,-2.65967 -0.3103,-3.59055 -1.19685,-3.59055 -0.65827,0 -1.19685,-0.36819 -1.19685,-0.8182 0,-0.47829 1.84331,-0.75796 4.43704,-0.67321 4.15192,0.13568 4.50293,0.30362 5.4621,2.61348 l 1.02505,2.46848 0.58556,-2.59318 c 0.32206,-1.42625 1.04863,-2.59318 1.61461,-2.59318 0.93738,0 2.005,3.88744 2.02697,7.38059 0.0124,1.96069 -1.51074,1.74154 -2.27613,-0.32752 -0.54578,-1.47536 -0.71097,-1.53287 -1.1461,-0.39895 -0.75479,1.96696 -1.9176,1.60884 -2.82271,-0.86933 l -0.8014,-2.19423 -0.063,2.59318 c -0.0973,4.00441 -1.6588,3.06552 -1.6588,-0.99738 0,-2.65967 -0.31029,-3.59055 -1.19685,-3.59055 -0.88655,0 -1.19685,0.93088 -1.19685,3.59055 0,1.97481 -0.35905,3.59056 -0.7979,3.59056 -0.43884,0 -0.7979,-1.61575 -0.7979,-3.59056 z" style="fill:#000;stroke-width:.797901" id="path1"/></svg>