<?xml version="1.0" standalone="no"?>
<!DOCTYPE svg PUBLIC "-//W3C//DTD SVG 20010904//EN"
 "http://www.w3.org/TR/2001/REC-SVG-20010904/DTD/svg10.dtd">
<svg xmlns="http://www.w3.org/2000/svg"
 width="720.000000pt" height="720.000000pt" viewBox="0 0 720.000000 720.000000"
 preserveAspectRatio="xMidYMid meet">
<metadata>
Created by potrace 1.11, written by Peter Selinger 2001-2013
</metadata>
<g transform="translate(0.000000,720.000000) scale(0.100000,-0.100000)"
fill="#000000" stroke="none">
<path d="M2592 6944 c-19 -13 -31 -14 -67 -5 -63 16 -103 14 -149 -8 -23 -10
-68 -21 -100 -24 -38 -4 -70 -14 -88 -27 -21 -15 -47 -22 -96 -24 -68 -3 -135
-28 -161 -60 -8 -9 -24 -16 -38 -16 -39 0 -106 -20 -129 -39 -44 -36 -59 -103
-35 -163 8 -22 6 -36 -9 -70 -25 -55 -25 -75 1 -123 13 -26 21 -62 22 -102 2
-52 7 -69 35 -108 23 -34 32 -56 32 -87 0 -44 38 -121 64 -131 8 -3 18 -26 24
-51 12 -57 42 -102 94 -141 24 -18 48 -48 60 -74 23 -54 47 -77 116 -107 28
-13 52 -29 52 -35 0 -26 44 -70 95 -94 30 -14 55 -29 55 -34 0 -4 -28 -25 -62
-47 -83 -51 -226 -194 -269 -269 -79 -136 -109 -250 -124 -467 -4 -66 -20 -93
-83 -145 -278 -225 -387 -609 -267 -930 27 -70 77 -158 131 -228 20 -27 40
-70 49 -107 9 -35 36 -122 61 -195 24 -72 47 -151 50 -175 7 -48 46 -161 76
-223 86 -171 261 -341 440 -425 35 -17 114 -65 176 -109 110 -76 241 -147 351
-191 30 -11 68 -35 85 -52 53 -53 180 -143 247 -175 156 -75 336 -103 514 -80
171 23 345 107 485 236 34 31 79 60 120 76 101 41 237 116 354 197 59 40 141
90 182 110 236 118 427 351 480 583 8 39 37 140 65 225 27 85 54 178 60 205 8
31 30 74 59 113 122 164 171 314 166 507 -5 172 -54 325 -149 465 -42 61 -133
156 -174 181 -50 31 -70 80 -77 185 -18 302 -137 518 -373 678 -40 27 -73 55
-73 61 0 6 17 17 38 24 43 15 90 56 103 89 5 13 29 31 62 46 57 25 99 67 118
118 7 19 33 50 61 71 49 38 87 100 88 143 0 11 9 29 21 40 42 38 61 75 65 125
2 30 11 61 25 80 28 40 48 106 42 145 -3 20 2 42 16 65 25 41 27 103 5 149
-13 25 -14 40 -7 65 6 18 9 50 7 70 -7 80 -60 118 -175 124 -9 1 -29 12 -45
26 -38 32 -95 51 -168 54 -41 2 -68 9 -87 23 -16 12 -52 23 -91 28 -34 4 -76
14 -93 23 -35 20 -92 22 -145 6 -30 -9 -43 -8 -68 5 -41 21 -90 20 -149 -3
-34 -13 -64 -17 -104 -14 -45 4 -65 1 -105 -19 -31 -15 -62 -23 -83 -21 -54 5
-102 -13 -151 -57 -35 -31 -53 -40 -82 -40 -86 0 -231 -164 -309 -350 -19 -44
-36 -80 -39 -80 -3 0 -23 37 -43 83 -47 105 -103 190 -166 255 -63 65 -107 92
-150 92 -25 0 -45 11 -83 44 -49 45 -103 63 -154 52 -12 -2 -45 7 -74 21 -43
21 -63 24 -105 20 -36 -4 -67 0 -105 14 -66 23 -118 24 -148 3z m2108 -168 c0
-2 -7 -7 -16 -10 -8 -3 -12 -2 -9 4 6 10 25 14 25 6z m-55 -26 c-3 -5 -12 -10
-18 -10 -7 0 -6 4 3 10 19 12 23 12 15 0z m492 -46 c-3 -3 -12 -4 -19 -1 -8 3
-5 6 6 6 11 1 17 -2 13 -5z m-306 -21 c13 -16 12 -17 -3 -4 -10 7 -18 15 -18
17 0 8 8 3 21 -13z m-2501 -3 c0 -5 -5 -10 -11 -10 -5 0 -7 5 -4 10 3 6 8 10
11 10 2 0 4 -4 4 -10z m2960 -56 c0 -8 -19 -13 -24 -6 -3 5 1 9 9 9 8 0 15 -2
15 -3z m40 -4 c0 -5 -2 -10 -4 -10 -3 0 -8 5 -11 10 -3 6 -1 10 4 10 6 0 11
-4 11 -10z m-2129 -27 c13 -16 12 -17 -3 -4 -10 7 -18 15 -18 17 0 8 8 3 21
-13z m742 -8 c-3 -9 -8 -14 -10 -11 -3 3 -2 9 2 15 9 16 15 13 8 -4z m-2022
-12 c13 -16 12 -17 -3 -4 -10 7 -18 15 -18 17 0 8 8 3 21 -13z m2129 13 c0 -2
-7 -7 -16 -10 -8 -3 -12 -2 -9 4 6 10 25 14 25 6z m-1969 -39 c-10 -9 -11 -8
-5 6 3 10 9 15 12 12 3 -3 0 -11 -7 -18z m804 5 c-3 -3 -11 0 -18 7 -9 10 -8
11 6 5 10 -3 15 -9 12 -12z m463 -17 c-3 -3 -9 2 -12 12 -6 14 -5 15 5 6 7 -7
10 -15 7 -18z m-863 -63 c-3 -3 -11 0 -18 7 -9 10 -8 11 6 5 10 -3 15 -9 12
-12z m2170 -72 c3 -6 -1 -7 -9 -4 -18 7 -21 14 -7 14 6 0 13 -4 16 -10z m42
-115 c0 -8 -4 -12 -9 -9 -5 3 -6 10 -3 15 9 13 12 11 12 -6z m508 -4 c3 -5 2
-12 -3 -15 -5 -3 -9 1 -9 9 0 17 3 19 12 6z m-635 -55 c0 -2 -8 -10 -17 -17
-16 -13 -17 -12 -4 4 13 16 21 21 21 13z m-2589 -53 c13 -16 12 -17 -3 -4 -10
7 -18 15 -18 17 0 8 8 3 21 -13z m1060 -20 c13 -16 12 -17 -3 -4 -10 7 -18 15
-18 17 0 8 8 3 21 -13z m-1016 -21 c-3 -3 -11 0 -18 7 -9 10 -8 11 6 5 10 -3
15 -9 12 -12z m1766 -9 c13 -16 12 -17 -3 -4 -10 7 -18 15 -18 17 0 8 8 3 21
-13z m-911 -23 c8 -5 11 -10 5 -10 -5 0 -17 5 -25 10 -8 5 -10 10 -5 10 6 0
17 -5 25 -10z m1280 -4 c0 -2 -8 -10 -17 -17 -16 -13 -17 -12 -4 4 13 16 21
21 21 13z m-60 -40 c0 -2 -8 -10 -17 -17 -16 -13 -17 -12 -4 4 13 16 21 21 21
13z m-1055 -76 c3 -5 1 -10 -4 -10 -6 0 -11 5 -11 10 0 6 2 10 4 10 3 0 8 -4
11 -10z m850 -40 c3 -6 -1 -7 -9 -4 -18 7 -21 14 -7 14 6 0 13 -4 16 -10z
m-558 -16 c-3 -3 -12 -4 -19 -1 -8 3 -5 6 6 6 11 1 17 -2 13 -5z m773 -38 c0
-2 -8 -10 -17 -17 -16 -13 -17 -12 -4 4 13 16 21 21 21 13z m-1293 -392 c-3
-3 -12 -4 -19 -1 -8 3 -5 6 6 6 11 1 17 -2 13 -5z m-498 -1487 c1 7 8 10 18 6
10 -4 14 -2 10 4 -5 8 3 8 28 0 19 -6 35 -17 35 -24 0 -8 5 -11 10 -8 6 4 18
1 27 -7 12 -9 15 -9 9 -1 -5 9 -2 11 8 7 9 -3 13 -10 10 -15 -3 -5 2 -6 10 -3
9 3 16 1 16 -6 0 -6 4 -8 10 -5 5 3 21 -2 35 -11 14 -9 25 -13 25 -8 0 4 10
-2 23 -14 13 -12 27 -19 30 -15 4 3 7 1 7 -5 0 -7 14 -12 30 -12 17 0 30 -4
30 -9 0 -5 19 -15 43 -23 23 -8 41 -18 40 -24 -1 -6 4 -11 12 -11 8 0 12 5 9
11 -3 6 1 3 9 -6 8 -10 17 -15 20 -11 4 3 7 2 7 -4 0 -6 9 -13 20 -16 13 -3
18 -1 13 6 -3 7 6 1 22 -13 16 -14 24 -18 20 -10 -5 9 1 7 15 -5 15 -13 21
-15 16 -5 -6 11 -4 11 6 -1 7 -9 28 -20 46 -23 17 -4 34 -12 37 -17 4 -5 15
-9 25 -9 10 0 26 -8 36 -17 10 -10 19 -17 21 -15 12 9 33 -1 33 -15 0 -15 2
-16 10 -3 9 14 14 7 11 -13 -1 -5 4 -5 10 -1 6 3 15 1 19 -5 4 -7 17 -13 29
-14 13 -1 27 -10 33 -20 14 -26 19 -59 7 -52 -5 4 -9 1 -9 -5 0 -7 -7 -10 -14
-7 -10 4 -13 1 -10 -7 3 -8 -8 -23 -25 -36 -17 -12 -31 -18 -31 -13 0 4 -7 -3
-16 -15 -9 -13 -22 -21 -30 -18 -8 3 -14 -1 -14 -8 0 -8 -15 -17 -35 -20 -24
-5 -33 -11 -28 -19 4 -8 2 -8 -9 1 -12 9 -18 10 -23 2 -5 -8 -11 -8 -21 1 -8
6 -17 9 -21 5 -3 -3 0 -6 7 -6 7 0 10 -3 7 -7 -4 -3 -15 2 -26 11 -14 13 -21
14 -27 5 -5 -8 -3 -10 6 -4 9 6 11 4 5 -4 -5 -9 -14 -6 -33 11 -15 13 -20 15
-13 5 13 -16 12 -17 -15 -7 -16 6 -31 12 -34 13 -3 1 -4 6 -2 10 1 4 -6 4 -15
0 -10 -5 -25 -8 -33 -7 -8 1 -21 2 -28 3 -8 1 -10 6 -6 14 6 10 4 10 -7 0 -7
-7 -17 -13 -22 -13 -4 0 -5 6 -1 13 6 9 4 9 -8 -1 -12 -9 -18 -10 -23 -2 -4 6
-13 9 -20 6 -7 -2 -21 4 -31 15 -11 12 -21 16 -27 10 -5 -5 -21 -6 -37 -1 -16
5 -31 6 -34 2 -3 -3 -6 1 -6 9 0 11 -2 11 -10 -1 -6 -9 -10 -10 -10 -3 0 8
-13 11 -34 9 -19 -1 -33 1 -30 5 2 4 0 10 -6 14 -5 3 -10 0 -11 -7 0 -7 -4 -4
-9 7 -5 11 -9 14 -9 8 -1 -7 -6 -13 -12 -13 -5 0 -7 5 -4 10 3 6 -1 10 -9 10
-8 0 -27 12 -43 28 -15 15 -31 26 -35 25 -4 -2 -4 5 -1 14 4 9 2 14 -3 10 -6
-3 -16 3 -23 15 -7 11 -8 17 -2 13 23 -14 9 8 -26 42 -21 19 -32 32 -25 29 6
-4 12 -2 12 3 0 6 -7 11 -16 11 -8 0 -12 5 -9 10 3 6 1 10 -4 10 -6 0 -10 6
-8 13 1 6 -4 11 -11 9 -8 -1 -11 2 -8 7 4 5 -1 16 -9 24 -18 19 -20 31 -2 22
6 -4 4 0 -5 8 -13 10 -15 16 -6 25 9 9 9 12 -1 12 -11 0 -11 3 0 17 10 12 10
15 1 9 -10 -6 -11 1 -7 31 3 21 6 44 7 51 1 7 7 11 14 8 9 -3 11 1 7 11 -4 11
-2 14 5 9 7 -4 12 -2 12 5 0 9 3 9 14 0 10 -8 16 -9 21 -1 3 6 10 8 14 6 4 -3
13 -1 21 4 11 7 17 4 22 -8 4 -9 7 -12 7 -5z m2585 11 c-5 -9 -2 -9 9 1 10 8
17 9 17 3 0 -6 13 -9 29 -7 31 4 58 -16 46 -34 -4 -7 1 -8 11 -4 14 5 16 2 12
-20 -3 -16 0 -31 8 -38 10 -8 11 -16 4 -29 -6 -10 -10 -28 -10 -40 0 -12 -4
-19 -9 -15 -6 3 -8 -4 -6 -15 2 -11 0 -20 -4 -20 -5 0 -14 -13 -21 -30 -7 -16
-20 -30 -29 -30 -12 0 -13 -2 -3 -9 11 -6 7 -15 -13 -37 -15 -16 -21 -20 -14
-10 13 18 13 18 -8 5 -16 -10 -19 -16 -10 -22 9 -7 9 -10 0 -14 -7 -2 -13 -11
-13 -18 0 -8 -9 -19 -21 -25 -11 -7 -18 -14 -15 -17 7 -7 -17 -32 -26 -26 -5
2 -8 -3 -8 -12 0 -9 -5 -13 -10 -10 -6 3 -13 -1 -16 -9 -5 -12 -10 -13 -25 -5
-11 5 -19 6 -18 2 3 -21 -2 -24 -18 -12 -9 8 -14 9 -10 3 4 -7 0 -15 -9 -18
-25 -10 -36 -7 -28 7 4 6 -3 3 -16 -8 -14 -12 -20 -14 -15 -5 8 13 6 13 -8 2
-9 -8 -21 -11 -27 -7 -5 3 -10 2 -10 -4 0 -10 -31 -7 -53 5 -9 6 -9 5 0 -7 11
-14 9 -16 -17 -14 -16 1 -27 -2 -24 -7 3 -4 -5 -8 -18 -9 -13 0 -34 -2 -47 -5
-13 -2 -30 1 -38 7 -11 9 -12 9 -8 -4 5 -12 0 -15 -24 -13 -17 1 -31 -3 -31
-8 0 -6 -5 -4 -10 4 -8 12 -10 12 -10 1 0 -11 -3 -11 -17 0 -11 10 -14 10 -9
2 6 -12 -10 -16 -40 -12 -4 0 -11 -5 -15 -13 -7 -10 -9 -10 -9 0 0 8 -5 10
-12 5 -18 -10 -49 -10 -73 2 -11 5 -24 8 -29 7 -5 -2 -20 7 -34 20 -14 13 -21
16 -17 8 8 -13 7 -13 -9 -1 -9 8 -15 20 -12 28 3 7 1 13 -4 13 -6 0 -10 -6
-10 -12 -1 -9 -4 -8 -13 2 -7 8 -25 21 -40 28 -22 9 -27 17 -23 35 3 12 3 16
0 10 -3 -7 -10 -13 -15 -13 -6 0 -7 5 -4 10 3 6 2 10 -3 10 -6 0 -8 9 -5 20 3
11 10 17 17 13 6 -4 5 1 -3 10 -12 15 -11 17 8 17 11 0 21 5 21 11 0 6 9 9 20
6 11 -3 18 -2 15 3 -3 4 2 13 10 20 13 11 15 10 10 -6 -4 -12 0 -9 9 6 9 14
15 19 16 11 0 -11 3 -11 13 3 7 9 22 18 35 19 12 0 22 5 22 9 0 4 3 7 8 6 4 0
30 9 57 22 28 13 56 23 63 23 6 0 12 4 12 9 0 5 5 6 10 3 6 -3 10 -2 10 3 0 6
16 13 35 16 20 4 33 11 29 17 -3 6 5 8 20 5 15 -3 24 -1 21 4 -5 7 97 54 111
50 4 -1 10 4 14 11 4 6 21 12 38 13 19 1 28 5 25 14 -4 8 0 10 13 5 13 -5 15
-3 9 8 -4 8 -5 11 0 7 4 -4 15 -2 23 5 13 10 15 9 8 -3 -7 -13 -6 -13 6 0 19
22 63 45 52 29 -4 -7 8 -2 26 11 18 13 30 19 27 13 -4 -7 -2 -15 4 -19 7 -4 9
-3 6 3 -4 6 0 16 8 23 8 7 15 9 15 6 0 -4 7 0 16 8 12 13 20 14 36 5 16 -9 19
-8 13 2 -6 9 -2 11 13 7 12 -4 25 -2 28 3 3 5 7 9 10 9 3 0 2 -6 -2 -12z
m-2259 -538 c3 -5 1 -10 -4 -10 -6 0 -11 5 -11 10 0 6 2 10 4 10 3 0 8 -4 11
-10z m829 -467 c-5 -18 -3 -24 5 -19 6 4 11 1 11 -9 0 -10 4 -13 13 -8 6 4 4
-6 -7 -21 -10 -16 -13 -26 -8 -22 6 3 14 2 17 -4 4 -6 1 -9 -7 -8 -7 2 -12 -3
-10 -10 1 -7 -4 -19 -12 -27 -12 -13 -15 -12 -20 1 -3 8 -2 12 3 9 5 -3 12 -1
15 4 4 5 -2 8 -11 6 -11 -1 -17 -10 -15 -21 2 -14 -1 -13 -12 6 -8 14 -12 28
-10 32 3 5 0 8 -5 8 -6 0 -11 -5 -11 -12 0 -6 -3 -8 -7 -5 -3 4 2 17 13 29 10
12 14 18 7 15 -6 -4 -15 -2 -19 4 -4 7 -3 9 3 6 12 -7 26 20 18 33 -3 5 3 7
12 6 17 -3 33 10 33 28 0 5 -8 2 -17 -5 -16 -13 -17 -12 -4 3 18 24 33 13 25
-19z m293 20 c-4 -3 -2 -12 4 -19 8 -10 6 -12 -8 -9 -11 2 -25 0 -32 -4 -7 -5
0 -8 18 -9 17 0 34 -3 38 -5 13 -8 9 -80 -5 -83 -7 -1 -8 0 -2 3 5 2 10 9 10
14 0 5 -9 4 -20 -3 -19 -12 -19 -13 1 -24 18 -9 19 -12 5 -17 -8 -3 -18 -2
-21 4 -4 5 -11 7 -16 4 -5 -3 -6 1 -2 11 5 14 3 15 -18 4 -24 -13 -24 -13 -5
9 11 11 14 21 9 21 -6 0 -14 7 -17 16 -6 15 -4 15 11 3 11 -10 14 -10 9 -1
-16 27 -17 62 -1 62 10 0 13 5 9 12 -4 6 -3 8 4 4 6 -3 13 -2 17 4 3 5 9 10
12 10 4 0 3 -3 0 -7z"/>
<path d="M3238 3583 c7 -3 16 -2 19 1 4 3 -2 6 -13 5 -11 0 -14 -3 -6 -6z"/>
<path d="M5020 3899 c0 -5 5 -7 10 -4 6 3 10 8 10 11 0 2 -4 4 -10 4 -5 0 -10
-5 -10 -11z"/>
<path d="M3435 2980 c-3 -6 1 -7 9 -4 18 7 21 14 7 14 -6 0 -13 -4 -16 -10z"/>
<path d="M3476 2967 c3 -10 9 -15 12 -12 3 3 0 11 -7 18 -10 9 -11 8 -5 -6z"/>
<path d="M3753 2965 c0 -7 6 -12 13 -12 7 0 11 4 8 8 -2 4 2 9 8 12 7 3 4 5
-8 4 -11 -1 -21 -6 -21 -12z"/>
<path d="M1550 1640 c0 -5 5 -10 11 -10 5 0 7 5 4 10 -3 6 -8 10 -11 10 -2 0
-4 -4 -4 -10z"/>
<path d="M6373 1605 c0 -8 4 -12 9 -9 5 3 6 10 3 15 -9 13 -12 11 -12 -6z"/>
<path d="M995 1600 c-3 -5 -1 -10 4 -10 6 0 11 5 11 10 0 6 -2 10 -4 10 -3 0
-8 -4 -11 -10z"/>
<path d="M1113 1595 c0 -8 4 -12 9 -9 5 3 6 10 3 15 -9 13 -12 11 -12 -6z"/>
<path d="M1233 1595 c0 -8 4 -12 9 -9 5 3 6 10 3 15 -9 13 -12 11 -12 -6z"/>
<path d="M1353 1595 c0 -8 4 -12 9 -9 5 3 6 10 3 15 -9 13 -12 11 -12 -6z"/>
<path d="M1519 1593 c-13 -16 -12 -17 4 -4 9 7 17 15 17 17 0 8 -8 3 -21 -13z"/>
<path d="M1673 1595 c0 -8 4 -12 9 -9 5 3 6 10 3 15 -9 13 -12 11 -12 -6z"/>
<path d="M4935 1600 c3 -5 8 -10 11 -10 2 0 4 5 4 10 0 6 -5 10 -11 10 -5 0
-7 -4 -4 -10z"/>
<path d="M5073 1604 c4 -7 0 -17 -8 -24 -11 -9 -15 -9 -15 -1 0 7 -5 9 -12 5
-16 -10 -128 -12 -148 -3 -13 6 -15 -4 -12 -67 3 -52 0 -79 -9 -91 -10 -12
-10 -15 -1 -9 8 5 12 0 12 -14 0 -14 -4 -19 -12 -14 -10 6 -10 5 -2 -7 9 -10
12 -123 12 -392 -1 -208 2 -380 6 -384 3 -4 46 -7 95 -7 82 -1 89 1 98 21 7
14 7 25 2 29 -5 3 -9 10 -9 15 0 6 4 8 8 5 5 -3 9 1 9 9 0 8 -4 12 -9 9 -12
-8 -5 49 7 58 6 5 5 8 -4 8 -10 0 -11 3 -2 14 8 10 9 16 1 21 -5 3 -10 11 -10
16 0 6 5 7 12 3 8 -5 8 -3 2 7 -5 8 -9 39 -9 69 0 50 2 55 22 56 14 1 20 -2
16 -9 -4 -6 -1 -7 6 -2 17 10 142 15 136 4 -3 -4 0 -11 6 -15 7 -4 9 -3 6 3
-4 6 0 14 9 17 22 9 26 8 18 -6 -5 -7 -3 -8 6 -3 20 13 70 14 70 1 0 -7 3 -7
8 -1 9 13 46 19 38 6 -4 -5 -1 -13 5 -17 8 -4 9 -3 5 4 -8 14 -11 13 81 16 40
2 70 -1 67 -5 -2 -4 1 -11 7 -15 7 -4 9 -3 6 3 -4 6 0 14 9 17 23 9 24 8 18
-11 -5 -14 -4 -15 4 -4 15 20 72 22 73 2 0 -14 1 -14 7 -1 5 11 22 16 59 15
29 0 53 4 53 9 0 4 18 6 39 4 22 -2 37 0 35 4 -2 4 4 7 13 8 46 1 63 5 63 13
0 5 12 6 28 3 17 -4 22 -3 14 2 -11 7 -10 11 5 16 10 4 19 7 21 6 8 -3 55 58
71 92 10 21 20 36 22 34 2 -3 4 35 4 85 0 49 4 89 8 89 5 0 5 5 2 11 -4 5 -9
43 -11 82 -6 97 -6 97 -16 97 -6 0 -8 6 -6 12 8 22 -81 95 -96 80 -12 -11 -36
-10 -36 1 0 8 -3 7 -9 -1 -11 -18 -20 -17 -38 5 -8 10 -12 13 -9 6 9 -17 -15
-28 -24 -12 -7 10 -11 10 -24 0 -12 -11 -16 -11 -16 -1 0 8 -5 9 -12 4 -21
-14 -73 -11 -70 4 1 8 -2 11 -8 7 -6 -3 -8 -10 -6 -14 3 -3 -4 -7 -14 -7 -10
0 -16 5 -13 10 4 5 1 6 -8 1 -19 -12 -80 -13 -103 -2 -12 6 -16 6 -12 -1 4 -6
-2 -10 -14 -9 -11 1 -20 6 -20 12 0 5 -4 4 -9 -3 -4 -8 -12 -14 -16 -14 -4 0
-12 6 -16 14 -5 7 -9 8 -9 2 0 -14 -30 -14 -30 0 0 6 -4 5 -9 -2 -12 -20 -18
-19 -36 3 -10 13 -14 15 -13 5 2 -11 -7 -15 -34 -15 -20 0 -34 4 -31 9 4 5 0
6 -8 1 -20 -13 -119 -13 -111 0 4 7 1 7 -9 0 -20 -15 -154 -13 -154 2 0 6 -4
15 -9 20 -5 4 -6 3 -3 -3z m87 -148 c0 -5 7 -3 15 4 12 10 15 10 15 0 0 -10 3
-10 14 -1 9 7 17 8 20 2 7 -11 25 -9 45 3 8 5 16 4 21 -4 6 -9 13 -9 28 -1 12
6 23 7 26 2 7 -11 25 -9 45 3 8 5 16 4 21 -4 6 -9 13 -9 28 -1 12 6 23 7 26 2
7 -11 25 -9 45 3 8 5 16 4 21 -4 6 -9 13 -9 28 -1 12 6 23 7 26 2 5 -8 27 -8
46 -1 3 1 7 2 11 2 3 0 58 -3 122 -6 79 -3 123 -9 137 -19 16 -11 18 -16 8
-20 -9 -4 -8 -6 3 -6 17 -1 34 -41 17 -41 -5 0 -7 -4 -4 -9 3 -5 8 -27 10 -50
3 -29 0 -39 -8 -34 -6 4 -5 -1 3 -10 8 -11 9 -17 3 -17 -6 0 -9 -7 -6 -15 4
-8 3 -30 0 -49 -9 -45 -51 -65 -157 -73 -69 -5 -81 -4 -74 8 5 9 2 9 -9 -2
-13 -12 -27 -14 -56 -9 -26 5 -41 3 -44 -4 -3 -7 -8 -7 -14 3 -5 7 -12 9 -15
5 -3 -5 -42 -7 -86 -4 -49 3 -83 1 -85 -5 -3 -6 -9 -4 -14 4 -6 8 -12 9 -16 3
-3 -5 -22 -6 -45 -2 -25 4 -44 3 -50 -3 -8 -8 -11 -7 -11 3 0 9 -3 10 -9 5 -6
-6 -44 -9 -86 -7 -61 3 -75 6 -71 18 3 8 2 14 -2 14 -14 0 -7 116 8 136 14 17
14 18 -1 6 -15 -11 -17 -8 -16 23 1 19 6 35 12 35 5 0 4 4 -3 9 -16 10 -12 32
8 48 13 12 13 12 0 8 -12 -4 -16 2 -15 24 0 22 4 28 17 26 10 -2 18 -1 18 3 0
4 11 7 25 7 14 0 25 -4 25 -9z"/>
<path d="M5120 1440 c-9 -6 -10 -10 -3 -10 6 0 15 5 18 10 8 12 4 12 -15 0z"/>
<path d="M5873 1425 c0 -8 4 -12 9 -9 5 3 6 10 3 15 -9 13 -12 11 -12 -6z"/>
<path d="M5114 1406 c1 -8 5 -18 8 -22 4 -3 5 1 4 10 -1 8 -5 18 -8 22 -4 3
-5 -1 -4 -10z"/>
<path d="M5896 1342 c-3 -5 1 -9 9 -9 8 0 12 4 9 9 -3 4 -7 8 -9 8 -2 0 -6 -4
-9 -8z"/>
<path d="M5090 1321 c0 -6 4 -13 10 -16 6 -3 7 1 4 9 -7 18 -14 21 -14 7z"/>
<path d="M5895 1240 c3 -5 8 -10 11 -10 2 0 4 5 4 10 0 6 -5 10 -11 10 -5 0
-7 -4 -4 -10z"/>
<path d="M5875 1211 c-3 -5 -2 -12 3 -15 5 -3 9 1 9 9 0 17 -3 19 -12 6z"/>
<path d="M5086 1178 c3 -5 10 -6 15 -3 13 9 11 12 -6 12 -8 0 -12 -4 -9 -9z"/>
<path d="M5876 1167 c3 -10 9 -15 12 -12 3 3 0 11 -7 18 -10 9 -11 8 -5 -6z"/>
<path d="M5593 1145 c0 -8 4 -12 9 -9 5 3 6 10 3 15 -9 13 -12 11 -12 -6z"/>
<path d="M5275 1140 c3 -5 8 -10 11 -10 2 0 4 5 4 10 0 6 -5 10 -11 10 -5 0
-7 -4 -4 -10z"/>
<path d="M5350 1139 c0 -5 5 -7 10 -4 6 3 10 8 10 11 0 2 -4 4 -10 4 -5 0 -10
-5 -10 -11z"/>
<path d="M5515 1140 c3 -5 8 -10 11 -10 2 0 4 5 4 10 0 6 -5 10 -11 10 -5 0
-7 -4 -4 -10z"/>
<path d="M5155 1600 c-3 -5 -1 -10 4 -10 6 0 11 5 11 10 0 6 -2 10 -4 10 -3 0
-8 -4 -11 -10z"/>
<path d="M5273 1595 c0 -8 4 -12 9 -9 5 3 6 10 3 15 -9 13 -12 11 -12 -6z"/>
<path d="M5393 1595 c0 -8 4 -12 9 -9 5 3 6 10 3 15 -9 13 -12 11 -12 -6z"/>
<path d="M5465 1600 c-3 -6 1 -7 9 -4 18 7 21 14 7 14 -6 0 -13 -4 -16 -10z"/>
<path d="M5945 1600 c-3 -6 1 -7 9 -4 18 7 21 14 7 14 -6 0 -13 -4 -16 -10z"/>
<path d="M1839 1593 c-1 -5 -1 -12 0 -16 1 -4 -7 -3 -18 2 -10 6 -21 7 -25 4
-9 -9 -118 -11 -137 -2 -9 5 -19 5 -23 2 -9 -9 -118 -11 -137 -2 -9 5 -19 5
-23 2 -9 -9 -118 -11 -137 -2 -9 5 -19 5 -23 2 -10 -10 -78 -11 -97 -2 -9 5
-19 5 -23 2 -10 -10 -78 -11 -97 -2 -9 5 -19 5 -23 2 -11 -11 -146 -9 -146 2
0 5 -4 4 -9 -3 -4 -8 -12 -14 -16 -14 -4 0 -12 6 -16 14 -5 7 -9 8 -9 2 0 -14
-30 -14 -30 0 0 7 -3 7 -8 1 -10 -14 -32 -17 -32 -4 0 8 -4 8 -12 2 -16 -13
-48 -13 -48 0 0 5 -7 4 -16 -4 -9 -7 -14 -22 -11 -36 2 -13 1 -26 -4 -29 -5
-2 -5 -15 -1 -27 7 -21 8 -39 2 -62 -1 -5 -3 -35 -4 -65 -1 -43 -4 -54 -16
-52 -8 2 -11 0 -7 -5 5 -4 13 -8 18 -8 8 0 11 -8 8 -17 -6 -20 -6 -39 1 -43 4
-2 6 -17 4 -32 -2 -16 -4 -49 -5 -75 -1 -31 -6 -45 -13 -41 -6 4 -5 0 2 -9 7
-8 10 -23 6 -32 -3 -9 -2 -16 2 -16 8 0 9 -71 1 -150 -2 -19 1 -41 6 -47 6 -8
6 -13 0 -13 -5 0 -9 -10 -8 -22 1 -13 -2 -29 -8 -36 -8 -10 -7 -12 3 -10 14 3
15 -5 9 -72 -2 -14 -7 -31 -13 -39 -8 -11 -8 -13 2 -7 8 5 12 0 12 -13 0 -23
-4 -23 102 -23 43 0 75 -4 73 -9 -3 -4 -1 -11 5 -14 6 -4 9 -1 8 7 -2 7 4 13
12 13 8 0 14 -6 12 -13 -1 -8 2 -11 8 -7 6 3 8 11 5 16 -4 5 3 9 15 9 14 0 19
-4 14 -12 -6 -10 -4 -10 7 0 15 14 43 17 34 3 -3 -5 -1 -13 5 -16 6 -4 9 -1 8
7 -4 18 49 23 70 6 9 -7 13 -8 9 -2 -5 8 11 12 54 13 45 0 58 -3 53 -12 -5 -9
-4 -9 7 0 7 7 19 13 27 13 8 0 10 -5 6 -13 -5 -8 -2 -8 9 2 14 11 20 11 34 0
9 -8 14 -9 10 -3 -9 15 53 16 72 1 10 -8 13 -8 8 -1 -5 8 6 12 32 11 25 -1 38
-5 34 -11 -3 -6 0 -5 8 1 17 17 42 17 33 1 -6 -10 -4 -10 7 0 7 6 25 12 39 12
14 0 32 -6 39 -13 8 -6 11 -7 8 -1 -4 7 14 11 54 12 43 0 57 -3 52 -11 -4 -7
1 -5 11 3 16 13 20 12 33 -5 11 -14 14 -15 10 -4 -5 14 5 17 69 16 47 0 74 -4
74 -11 0 -6 4 -5 9 3 5 7 13 11 18 8 24 -15 106 102 119 170 4 21 14 44 23 51
9 8 10 11 4 7 -9 -4 -13 3 -13 25 0 17 4 29 8 26 5 -3 9 1 9 9 0 8 -3 12 -7
10 -4 -2 -7 9 -7 25 0 16 5 27 10 23 5 -3 6 2 0 13 -11 24 -10 104 1 123 6 8
5 12 0 8 -5 -3 -10 3 -10 13 0 10 4 17 7 14 4 -2 11 0 14 6 4 6 1 9 -6 8 -16
-4 -20 91 -5 111 8 11 8 13 -1 7 -7 -4 -13 -3 -13 1 0 5 6 15 13 22 7 8 7 11
1 8 -8 -5 -12 6 -13 31 -1 20 -2 47 -2 60 -1 12 -4 22 -8 22 -4 0 -12 20 -20
44 -7 24 -29 61 -51 84 -21 22 -36 43 -32 48 4 4 1 4 -6 0 -7 -4 -19 -3 -26 3
-7 6 -24 10 -37 9 -15 -2 -23 2 -21 10 1 6 0 12 -3 12 -3 0 -6 -3 -6 -7z
m-880 -152 c1 18 41 34 41 17 0 -6 6 -5 15 2 12 10 15 10 15 0 0 -10 3 -10 14
-1 9 7 17 8 20 2 7 -11 25 -9 45 3 8 5 16 4 21 -4 6 -9 13 -9 28 -1 12 6 23 7
26 2 7 -10 25 -9 44 2 7 5 12 3 12 -3 0 -6 5 -8 12 -4 17 11 58 11 58 1 0 -4
9 -3 20 3 14 8 20 8 20 0 0 -8 6 -8 20 0 14 8 20 8 20 0 0 -8 6 -8 20 0 14 8
20 8 20 0 0 -8 6 -8 20 0 14 8 20 8 20 0 0 -8 6 -8 20 0 14 8 20 8 20 0 0 -8
6 -8 20 0 11 6 20 7 20 3 0 -4 38 -7 85 -6 51 1 83 -2 80 -7 -3 -6 1 -7 10 -4
34 14 105 -26 105 -59 0 -8 4 -17 9 -19 18 -6 32 -243 16 -268 -3 -5 -3 -10 2
-10 4 0 8 -24 8 -54 0 -30 -2 -53 -5 -51 -3 2 -5 -36 -6 -84 0 -115 -31 -190
-72 -176 -7 3 -11 1 -8 -4 11 -17 -29 -23 -172 -27 -115 -4 -142 -2 -136 8 6
11 5 11 -8 0 -12 -10 -77 -12 -279 -10 l-263 3 -1 57 c-1 35 2 55 8 51 6 -4 7
-1 2 7 -14 22 -15 81 -1 73 6 -4 5 1 -3 10 -11 14 -11 17 0 18 12 0 12 1 0 6
-11 5 -11 7 0 14 11 7 11 9 1 9 -9 0 -10 5 -2 19 7 13 7 22 0 26 -15 9 -12 27
3 19 10 -6 10 -4 0 7 -7 7 -13 20 -13 28 0 14 1 14 10 1 5 -8 10 -10 10 -4 0
6 -3 14 -7 18 -11 11 -10 40 2 48 6 5 5 8 -2 8 -7 0 -13 5 -13 11 0 5 6 7 13
3 9 -6 9 -4 -1 8 -12 15 -12 51 1 64 3 4 3 12 -1 18 -9 15 -9 85 0 79 5 -2 8
1 8 6 0 6 -4 11 -8 11 -5 0 -8 24 -8 54 1 30 4 52 9 49 4 -2 7 1 7 6 0 6 -6
11 -12 11 -9 0 -8 4 2 10 13 9 13 10 0 11 -10 0 -8 3 5 8 15 6 21 3 27 -13 4
-14 6 -16 7 -5z"/>
<path d="M1633 1435 c0 -8 4 -12 9 -9 5 3 6 10 3 15 -9 13 -12 11 -12 -6z"/>
<path d="M1766 1422 c-3 -5 1 -9 9 -9 8 0 12 4 9 9 -3 4 -7 8 -9 8 -2 0 -6 -4
-9 -8z"/>
<path d="M930 1379 c0 -5 5 -7 10 -4 6 3 10 8 10 11 0 2 -4 4 -10 4 -5 0 -10
-5 -10 -11z"/>
<path d="M1836 1207 c3 -10 9 -15 12 -12 3 3 0 11 -7 18 -10 9 -11 8 -5 -6z"/>
<path d="M1826 1082 c-3 -5 1 -9 9 -9 8 0 12 4 9 9 -3 4 -7 8 -9 8 -2 0 -6 -4
-9 -8z"/>
<path d="M946 918 c3 -5 10 -6 15 -3 13 9 11 12 -6 12 -8 0 -12 -4 -9 -9z"/>
<path d="M935 860 c3 -5 8 -10 11 -10 2 0 4 5 4 10 0 6 -5 10 -11 10 -5 0 -7
-4 -4 -10z"/>
<path d="M1806 858 c3 -5 10 -6 15 -3 13 9 11 12 -6 12 -8 0 -12 -4 -9 -9z"/>
<path d="M930 780 c0 -5 5 -10 11 -10 5 0 7 5 4 10 -3 6 -8 10 -11 10 -2 0 -4
-4 -4 -10z"/>
<path d="M1795 750 c-3 -6 1 -7 9 -4 18 7 21 14 7 14 -6 0 -13 -4 -16 -10z"/>
<path d="M940 746 c0 -2 8 -10 18 -17 15 -13 16 -12 3 4 -13 16 -21 21 -21 13z"/>
<path d="M989 723 c-13 -16 -12 -17 4 -4 9 7 17 15 17 17 0 8 -8 3 -21 -13z"/>
<path d="M1190 720 c0 -5 5 -10 11 -10 5 0 7 5 4 10 -3 6 -8 10 -11 10 -2 0
-4 -4 -4 -10z"/>
<path d="M1319 713 c-13 -16 -12 -17 4 -4 16 13 21 21 13 21 -2 0 -10 -8 -17
-17z"/>
<path d="M1680 720 c-9 -6 -10 -10 -3 -10 6 0 15 5 18 10 8 12 4 12 -15 0z"/>
<path d="M1730 716 c7 -7 13 -7 20 0 6 6 3 10 -10 10 -13 0 -16 -4 -10 -10z"/>
<path d="M2284 1579 c-9 -15 -8 -124 1 -139 4 -6 11 -8 16 -4 13 8 89 11 89 3
0 -4 32 -4 73 0 4 1 7 14 7 30 0 16 6 32 13 34 10 4 10 6 0 6 -7 1 -13 7 -13
15 0 8 6 17 13 19 10 4 10 6 0 6 -7 1 -13 11 -13 24 0 12 -4 18 -8 12 -9 -12
-72 -15 -72 -3 0 5 -9 4 -20 -2 -14 -8 -20 -8 -20 0 0 7 -6 8 -18 1 -13 -7
-22 -7 -29 0 -8 8 -13 7 -19 -2z"/>
<path d="M6306 1570 c-2 -3 -2 -19 -1 -37 1 -18 -2 -30 -7 -27 -4 3 -3 -7 2
-21 13 -35 13 -48 -2 -39 -7 4 -10 4 -6 -1 8 -8 145 -10 183 -2 18 3 20 12 20
68 l0 64 -93 0 c-52 0 -95 -2 -96 -5z"/>
<path d="M3973 1532 c-20 -3 -23 -9 -23 -53 0 -32 -4 -49 -12 -49 -10 0 -10
-2 -1 -8 7 -4 11 -17 11 -28 -2 -19 -8 -21 -84 -20 -76 1 -82 0 -78 -18 2 -11
-2 -26 -9 -35 -9 -12 -9 -13 1 -7 7 4 12 2 12 -6 0 -8 -6 -20 -12 -27 -9 -10
-9 -12 -1 -7 9 5 11 -5 9 -36 l-2 -43 82 1 c76 2 82 0 79 -17 -2 -11 -7 -24
-11 -31 -4 -6 -3 -8 4 -4 7 4 11 -49 11 -179 0 -102 5 -210 11 -240 6 -30 11
-57 10 -60 0 -3 6 -13 15 -21 8 -9 12 -21 8 -27 -3 -7 -3 -9 2 -5 4 4 13 1 21
-6 8 -8 28 -12 49 -10 26 2 34 0 28 -9 -4 -8 -1 -7 10 1 18 15 41 7 31 -10 -4
-7 -2 -8 5 -4 6 4 9 12 6 17 -4 5 3 9 15 9 12 0 19 -4 15 -9 -3 -5 -1 -13 5
-16 6 -4 9 -1 8 7 -2 7 4 13 12 13 8 0 14 -6 12 -13 -1 -8 2 -11 8 -7 6 3 8
11 4 16 -4 7 9 9 32 7 26 -2 38 -7 36 -16 -1 -8 2 -11 8 -7 6 3 8 11 5 16 -4
5 3 9 15 9 12 0 19 -4 15 -9 -3 -5 -1 -13 5 -16 6 -4 9 -1 8 7 -2 8 10 13 35
15 27 2 36 -1 30 -10 -4 -8 -1 -7 10 1 18 15 41 7 31 -10 -4 -7 -2 -8 5 -4 6
4 9 12 6 17 -4 5 3 9 15 9 13 0 19 -4 14 -12 -5 -7 -3 -8 7 -2 8 5 27 9 44 10
17 1 38 12 51 27 12 14 25 23 30 19 4 -4 4 -2 1 4 -3 6 1 30 10 55 8 24 17 86
20 137 l4 92 -25 1 c-14 1 -35 1 -46 1 -107 0 -107 0 -102 -33 4 -25 2 -30 -9
-24 -11 6 -12 5 -1 -6 6 -7 12 -17 12 -22 0 -4 -6 -5 -12 -1 -9 5 -9 2 1 -9
11 -14 11 -17 0 -17 -9 0 -10 -3 -4 -8 17 -12 17 -35 1 -29 -9 4 -18 2 -21 -4
-4 -5 -1 -8 7 -7 34 7 -6 -61 -42 -71 -46 -12 -122 -12 -137 0 -14 12 -16 12
-9 0 7 -11 0 -12 -35 -8 -24 3 -52 9 -62 12 -17 7 -17 8 0 21 17 12 16 13 -4
7 -20 -4 -23 -1 -23 21 0 33 3 42 13 38 5 -1 6 2 2 8 -3 6 -10 8 -14 6 -4 -3
-8 17 -9 45 0 29 3 47 9 44 5 -4 6 -11 3 -17 -5 -7 -2 -8 5 -4 9 6 9 12 -3 25
-19 21 -22 66 -3 55 10 -6 10 -4 0 7 -7 7 -13 37 -13 67 0 40 3 51 13 46 9 -6
9 -4 -1 8 -7 9 -12 38 -11 67 2 44 4 49 18 38 9 -7 12 -8 8 -1 -8 14 51 13 72
0 9 -6 12 -5 8 1 -4 6 65 9 197 9 199 -1 204 -1 199 19 -2 11 -4 50 -4 88 -1
55 -4 67 -17 67 -10 1 -98 2 -197 3 -143 2 -179 5 -177 15 1 8 -2 11 -8 7 -6
-3 -8 -10 -5 -15 3 -4 -16 -7 -43 -6 l-47 1 -1 72 c0 40 -3 75 -5 77 -6 6
-137 12 -166 8z"/>
<path d="M4855 1480 c3 -5 8 -10 11 -10 2 0 4 5 4 10 0 6 -5 10 -11 10 -5 0
-7 -4 -4 -10z"/>
<path d="M4176 1438 c3 -5 10 -6 15 -3 13 9 11 12 -6 12 -8 0 -12 -4 -9 -9z"/>
<path d="M4830 1446 c0 -2 7 -7 16 -10 8 -3 12 -2 9 4 -6 10 -25 14 -25 6z"/>
<path d="M4173 1405 c0 -8 4 -12 9 -9 5 3 6 10 3 15 -9 13 -12 11 -12 -6z"/>
<path d="M3916 1402 c-3 -5 1 -9 9 -9 8 0 12 4 9 9 -3 4 -7 8 -9 8 -2 0 -6 -4
-9 -8z"/>
<path d="M4265 1400 c-3 -6 1 -7 9 -4 18 7 21 14 7 14 -6 0 -13 -4 -16 -10z"/>
<path d="M4470 1400 c0 -5 5 -10 10 -10 6 0 10 5 10 10 0 6 -4 10 -10 10 -5 0
-10 -4 -10 -10z"/>
<path d="M2365 1380 c-3 -5 -21 -9 -40 -8 -19 1 -38 -1 -41 -4 -3 -4 -6 -56
-7 -117 0 -60 -4 -108 -8 -105 -4 2 -11 0 -14 -6 -4 -6 -1 -9 7 -8 9 2 14 -10
16 -36 2 -23 0 -36 -7 -32 -5 4 -13 2 -16 -4 -4 -6 -1 -9 7 -8 9 2 14 -13 16
-55 2 -37 -1 -57 -7 -53 -5 4 -13 2 -16 -4 -4 -6 -1 -9 7 -8 9 2 14 -13 15
-55 1 -32 -2 -55 -7 -52 -5 3 -12 1 -15 -5 -4 -6 -1 -9 6 -8 7 2 13 -12 15
-35 3 -28 0 -36 -9 -31 -9 6 -9 5 0 -7 6 -8 11 -34 11 -59 -1 -92 -8 -85 89
-83 49 1 93 2 98 2 6 1 10 18 9 39 -1 20 3 43 9 51 9 12 9 13 0 7 -16 -9 -17
6 -2 21 8 8 8 13 0 17 -6 4 -11 12 -11 17 0 6 5 7 10 4 6 -3 10 -1 10 4 0 6
-4 11 -8 11 -5 0 -9 13 -9 30 0 18 4 27 11 23 6 -4 5 1 -3 11 -13 15 -13 19 0
27 8 5 9 9 3 9 -6 0 -11 11 -11 25 0 14 5 25 11 25 6 0 5 4 -3 9 -10 7 -11 13
-1 31 7 12 8 20 2 16 -5 -3 -9 6 -9 19 0 14 5 25 11 25 7 0 8 3 1 8 -6 4 -12
18 -12 30 -2 18 2 22 15 18 14 -5 13 -3 -2 9 -17 12 -17 17 -5 32 9 11 10 14
2 9 -20 -11 -15 15 5 30 16 13 16 14 0 8 -21 -7 -23 6 -5 25 10 11 10 13 0 7
-7 -4 -13 -3 -13 1 0 5 6 15 13 22 10 11 10 13 0 7 -7 -4 -13 -2 -13 3 0 6 6
11 13 11 8 0 8 3 -2 9 -13 8 -13 12 0 27 9 11 9 15 2 10 -9 -5 -13 0 -13 14 0
12 4 19 8 16 5 -3 9 1 9 9 0 8 -4 12 -9 9 -5 -4 -8 2 -6 12 3 16 -5 19 -50 22
-30 2 -50 7 -47 13 4 5 4 9 1 9 -3 0 -8 -4 -11 -10z"/>
<path d="M6356 1378 c3 -4 -8 -8 -24 -8 -31 0 -48 -20 -30 -38 7 -7 6 -16 -1
-29 -7 -13 -7 -23 0 -30 6 -6 6 -19 0 -36 -6 -15 -7 -27 -3 -27 10 0 8 -152
-2 -169 -6 -8 -5 -12 0 -8 11 7 12 -53 1 -70 -5 -8 -4 -13 2 -13 13 0 10 -22
-4 -32 -7 -5 -6 -8 0 -8 6 0 11 -9 12 -20 1 -11 -2 -18 -6 -16 -4 3 -8 -1 -8
-9 0 -8 4 -15 8 -15 8 0 4 -94 -5 -109 -4 -6 -1 -11 6 -11 9 0 9 -3 -2 -10 -8
-5 -10 -10 -5 -10 6 0 10 -19 9 -42 -1 -24 -3 -43 -4 -43 -1 0 -3 -7 -5 -15
-2 -12 5 -15 33 -12 25 3 33 1 27 -7 -5 -9 -1 -8 14 1 17 11 25 11 42 0 14 -9
19 -9 14 -2 -5 8 1 11 16 10 57 -5 58 -3 58 54 -1 30 2 59 5 65 4 5 2 12 -3
15 -5 3 -5 21 -1 41 4 19 4 37 0 40 -4 3 -4 20 0 39 4 19 5 39 1 44 -4 6 -6
26 -5 44 1 18 3 53 3 78 3 129 4 136 21 132 8 -2 11 0 7 5 -5 4 -14 8 -20 8
-12 0 -17 44 -5 51 4 3 5 10 2 16 -4 6 -6 40 -5 75 l2 63 -66 0 c-36 0 -64 4
-61 8 3 5 -1 9 -9 9 -8 0 -12 -4 -9 -9z"/>
<path d="M2837 1329 c-19 -10 -39 -24 -43 -30 -4 -8 -9 -7 -16 2 -7 11 -8 11
-6 -1 4 -22 -34 -67 -52 -63 -12 4 -12 2 -2 -5 10 -7 11 -14 1 -35 -7 -15 -16
-27 -20 -27 -4 0 -8 -8 -8 -17 0 -22 -8 -68 -11 -68 -4 0 -8 -73 -9 -155 0
-82 2 -104 15 -179 5 -26 4 -32 -6 -26 -9 5 -11 4 -6 -4 4 -6 11 -9 16 -6 5 3
16 -9 24 -27 13 -25 14 -34 4 -41 -9 -6 -8 -7 4 -4 17 6 42 -15 31 -26 -3 -4
0 -7 8 -7 8 0 27 -7 42 -15 15 -8 25 -11 23 -6 -3 4 20 8 52 7 42 -1 56 -5 54
-14 -1 -8 2 -11 8 -7 6 3 8 11 5 16 -4 5 3 9 15 9 12 0 19 -4 15 -9 -3 -5 -1
-13 5 -16 6 -4 9 -1 8 7 -2 10 34 13 174 14 130 1 176 -1 171 -10 -5 -8 -3 -8
8 0 16 13 202 17 194 4 -3 -5 -1 -12 5 -15 6 -4 9 -1 8 7 -2 8 7 13 25 12 15
0 27 4 27 9 0 4 5 5 10 2 6 -4 10 -3 9 2 -5 19 14 62 24 56 5 -3 7 -2 4 4 -3
5 -2 35 2 66 7 54 1 91 -13 69 -3 -6 -20 -7 -41 -2 -19 4 -35 6 -35 3 0 -3 -8
1 -17 8 -9 8 -14 9 -10 3 9 -15 -25 -24 -46 -13 -20 11 -25 2 -29 -45 -1 -24
-6 -35 -15 -32 -8 3 -10 -1 -6 -11 5 -12 2 -15 -9 -10 -10 3 -19 -1 -22 -10
-4 -9 -14 -13 -26 -10 -11 3 -20 0 -20 -6 0 -7 -5 -5 -10 3 -5 8 -10 10 -10 5
0 -6 -9 -11 -20 -12 -13 -1 -18 2 -14 10 5 8 3 8 -7 0 -9 -9 -50 -13 -127 -13
-88 0 -112 3 -106 13 6 9 4 9 -7 1 -15 -12 -49 -15 -49 -5 0 3 -14 7 -32 7
-18 1 -34 6 -36 13 -2 6 -10 11 -18 11 -8 0 -18 8 -21 18 -4 9 -11 20 -17 24
-7 5 -5 8 4 8 12 0 12 2 2 9 -12 7 -20 33 -25 86 -2 16 4 20 28 19 17 0 33 4
37 10 5 8 8 7 8 0 0 -8 11 -9 35 -4 19 4 37 4 40 0 3 -5 18 -5 33 -1 15 5 36
5 47 1 11 -4 29 -4 41 0 11 5 27 4 35 0 8 -6 16 -5 20 2 4 6 12 7 18 4 6 -4 8
-13 4 -19 -4 -7 1 -6 10 2 10 8 20 11 24 8 3 -4 13 -2 23 3 10 5 21 6 24 2 4
-4 15 -7 24 -7 9 0 16 -6 14 -13 -1 -8 2 -11 8 -7 6 3 8 11 5 16 -4 5 6 9 22
10 15 1 37 2 48 3 11 0 28 -2 37 -6 9 -5 20 -4 23 2 4 7 13 7 26 0 10 -6 19
-7 19 -3 0 4 5 1 10 -7 8 -13 10 -12 10 4 0 20 0 20 16 0 8 -10 13 -13 9 -6
-4 8 3 12 24 12 41 0 61 9 54 26 -3 8 -1 14 4 14 9 0 8 123 -1 174 -12 64 -42
130 -83 178 -24 27 -43 46 -43 43 0 -4 -7 -2 -15 5 -8 7 -30 15 -48 17 -33 5
-44 5 -162 4 -38 -1 -106 -1 -150 -2 -44 0 -84 -1 -90 -1 -5 0 -19 3 -29 8
-12 4 -17 4 -13 -2 3 -6 -5 -9 -21 -8 -104 11 -120 10 -155 -7z m224 -129 c9
-13 10 -13 6 2 -5 15 7 16 131 14 120 -3 142 -6 178 -26 48 -26 80 -79 61
-100 -9 -10 -9 -11 0 -6 16 9 28 -33 13 -48 -10 -8 -14 -8 -17 2 -3 6 -9 12
-14 12 -6 0 -7 -4 -4 -10 3 -5 -1 -10 -10 -10 -9 0 -14 4 -11 8 3 5 -1 9 -9 9
-8 0 -12 -4 -9 -8 2 -4 -9 -7 -25 -7 -19 1 -28 5 -24 12 5 8 2 8 -8 0 -20 -16
-232 -17 -222 -1 5 9 3 9 -8 1 -18 -15 -159 -15 -159 0 0 8 -2 8 -8 0 -4 -6
-19 -10 -34 -10 -19 0 -26 5 -25 18 1 10 8 18 17 18 9 0 11 3 4 8 -6 4 -11 15
-11 24 0 13 7 17 24 14 13 -3 21 -1 18 5 -4 5 -10 7 -15 4 -19 -12 -18 14 0
35 11 13 20 19 20 15 0 -5 6 -1 13 9 7 9 25 18 40 20 15 1 29 5 32 8 11 10 46
3 56 -12z"/>
<path d="M2973 1185 c0 -8 4 -12 9 -9 5 3 6 10 3 15 -9 13 -12 11 -12 -6z"/>
<path d="M3016 1178 c3 -5 10 -6 15 -3 13 9 11 12 -6 12 -8 0 -12 -4 -9 -9z"/>
<path d="M2930 1139 c0 -5 5 -7 10 -4 6 3 10 8 10 11 0 2 -4 4 -10 4 -5 0 -10
-5 -10 -11z"/>
<path d="M3413 1115 c0 -8 4 -12 9 -9 5 3 6 10 3 15 -9 13 -12 11 -12 -6z"/>
<path d="M2896 1087 c3 -10 9 -15 12 -12 3 3 0 11 -7 18 -10 9 -11 8 -5 -6z"/>
<path d="M3375 1080 c-3 -5 -1 -10 4 -10 6 0 11 5 11 10 0 6 -2 10 -4 10 -3 0
-8 -4 -11 -10z"/>
<path d="M3194 1069 c-3 -6 -2 -15 3 -20 5 -5 9 -1 9 11 0 23 -2 24 -12 9z"/>
<path d="M2970 1060 c0 -5 5 -10 11 -10 5 0 7 5 4 10 -3 6 -8 10 -11 10 -2 0
-4 -4 -4 -10z"/>
<path d="M3247 1059 c7 -7 15 -10 18 -7 3 3 -2 9 -12 12 -14 6 -15 5 -6 -5z"/>
<path d="M3436 1057 c3 -10 9 -15 12 -12 3 3 0 11 -7 18 -10 9 -11 8 -5 -6z"/>
<path d="M680 1206 c0 -2 8 -10 18 -17 15 -13 16 -12 3 4 -13 16 -21 21 -21
13z"/>
<path d="M3880 1180 c8 -5 20 -10 25 -10 6 0 3 5 -5 10 -8 5 -19 10 -25 10 -5
0 -3 -5 5 -10z"/>
<path d="M4350 1186 c0 -2 7 -7 16 -10 8 -3 12 -2 9 4 -6 10 -25 14 -25 6z"/>
<path d="M4515 1180 c3 -5 8 -10 11 -10 2 0 4 5 4 10 0 6 -5 10 -11 10 -5 0
-7 -4 -4 -10z"/>
<path d="M690 1161 c0 -6 4 -13 10 -16 6 -3 7 1 4 9 -7 18 -14 21 -14 7z"/>
<path d="M3890 1139 c0 -5 5 -7 10 -4 6 3 10 8 10 11 0 2 -4 4 -10 4 -5 0 -10
-5 -10 -11z"/>
<path d="M680 1120 c-9 -6 -10 -10 -3 -10 6 0 15 5 18 10 8 12 4 12 -15 0z"/>
<path d="M3666 1118 c3 -5 10 -6 15 -3 13 9 11 12 -6 12 -8 0 -12 -4 -9 -9z"/>
<path d="M6080 1040 c-9 -6 -10 -10 -3 -10 6 0 15 5 18 10 8 12 4 12 -15 0z"/>
<path d="M4153 1005 c0 -8 4 -12 9 -9 5 3 6 10 3 15 -9 13 -12 11 -12 -6z"/>
<path d="M4193 995 c0 -8 4 -12 9 -9 5 3 6 10 3 15 -9 13 -12 11 -12 -6z"/>
<path d="M4850 939 c0 -5 5 -7 10 -4 6 3 10 8 10 11 0 2 -4 4 -10 4 -5 0 -10
-5 -10 -11z"/>
<path d="M3913 925 c0 -8 4 -15 9 -15 4 0 8 4 8 9 0 6 -4 12 -8 15 -5 3 -9 -1
-9 -9z"/>
<path d="M2490 901 c0 -6 4 -13 10 -16 6 -3 7 1 4 9 -7 18 -14 21 -14 7z"/>
<path d="M5113 895 c0 -8 4 -12 9 -9 5 3 6 10 3 15 -9 13 -12 11 -12 -6z"/>
<path d="M3435 840 c-3 -5 -1 -10 4 -10 6 0 11 5 11 10 0 6 -2 10 -4 10 -3 0
-8 -4 -11 -10z"/>
<path d="M3534 838 c-4 -7 -4 -10 1 -6 4 4 15 2 24 -5 14 -11 14 -10 2 6 -16
20 -18 21 -27 5z"/>
<path d="M2650 820 c0 -5 5 -10 11 -10 5 0 7 5 4 10 -3 6 -8 10 -11 10 -2 0
-4 -4 -4 -10z"/>
<path d="M3607 819 c7 -7 15 -10 18 -7 3 3 -2 9 -12 12 -14 6 -15 5 -6 -5z"/>
<path d="M4195 809 c-4 -6 -5 -12 -2 -15 2 -3 7 2 10 11 7 17 1 20 -8 4z"/>
<path d="M3325 720 c-3 -6 1 -7 9 -4 18 7 21 14 7 14 -6 0 -13 -4 -16 -10z"/>
<path d="M2879 573 c-13 -16 -12 -17 4 -4 16 13 21 21 13 21 -2 0 -10 -8 -17
-17z"/>
<path d="M5010 580 c0 -5 5 -10 11 -10 5 0 7 5 4 10 -3 6 -8 10 -11 10 -2 0
-4 -4 -4 -10z"/>
<path d="M4406 403 c-4 -5 -13 -8 -19 -8 -7 0 -12 -7 -12 -15 0 -8 -7 -21 -15
-28 -13 -12 -13 -13 1 -9 13 4 16 -2 13 -34 -1 -21 1 -39 6 -39 5 0 7 12 5 28
-2 18 4 32 19 44 l21 17 -24 -6 c-21 -5 -22 -4 -12 15 6 11 16 22 23 25 7 2
10 7 7 11 -3 3 -9 3 -13 -1z"/>
<path d="M4435 400 c-3 -5 -1 -10 4 -10 6 0 11 5 11 10 0 6 -2 10 -4 10 -3 0
-8 -4 -11 -10z"/>
<path d="M5810 399 c0 -6 -4 -8 -9 -4 -17 10 -39 -23 -34 -50 6 -30 31 -38
116 -39 51 -1 58 -4 64 -23 3 -13 9 -23 14 -23 5 0 3 12 -5 27 -13 25 -20 28
-73 30 -90 3 -98 6 -98 38 0 22 5 29 24 32 31 4 36 9 16 16 -8 4 -15 2 -15 -4z"/>
<path d="M5855 400 c-3 -5 -1 -10 4 -10 6 0 11 5 11 10 0 6 -2 10 -4 10 -3 0
-8 -4 -11 -10z"/>
<path d="M5880 400 c0 -5 9 -8 20 -7 21 1 18 10 -5 13 -8 1 -15 -2 -15 -6z"/>
<path d="M6298 386 c-19 -21 -25 -51 -7 -41 6 4 8 9 5 12 -3 3 2 13 11 21 11
11 31 16 64 14 27 -1 49 2 49 6 0 4 -23 7 -52 7 -38 0 -56 -5 -70 -19z"/>
<path d="M6430 399 c0 -5 9 -9 19 -9 18 0 36 -25 32 -43 -1 -5 3 -6 9 -2 8 5
8 11 1 19 -6 7 -8 15 -5 18 3 3 -9 10 -25 16 -19 7 -31 7 -31 1z"/>
<path d="M953 315 c0 -47 3 -85 6 -86 32 -6 151 -7 155 -1 2 4 -29 7 -70 7
-42 0 -75 4 -77 10 -2 5 -2 40 -1 78 1 37 -2 69 -6 72 -4 2 -7 -34 -7 -80z"/>
<path d="M1165 390 c3 -5 8 -10 11 -10 2 0 4 5 4 10 0 6 -5 10 -11 10 -5 0 -7
-4 -4 -10z"/>
<path d="M1445 314 c0 -46 4 -86 9 -91 4 -4 7 1 5 12 -2 11 1 26 6 34 5 10 4
16 -4 19 -9 3 -9 7 0 18 6 8 8 14 3 14 -4 0 1 7 12 15 17 14 17 14 1 9 -16 -6
-18 -2 -14 23 3 18 0 30 -7 30 -8 0 -11 -27 -11 -83z"/>
<path d="M2325 390 c3 -5 8 -10 11 -10 2 0 4 5 4 10 0 6 -5 10 -11 10 -5 0 -7
-4 -4 -10z"/>
<path d="M2609 390 c-1 -5 -1 -21 -1 -35 0 -46 2 -56 11 -50 12 7 11 65 0 65
-5 0 -6 7 -3 15 4 8 3 15 0 15 -3 0 -7 -4 -7 -10z"/>
<path d="M3645 381 c4 -19 -4 -25 -30 -22 -5 1 -1 -6 10 -14 11 -9 26 -13 35
-9 8 3 32 6 52 7 21 0 36 3 33 6 -2 4 -22 6 -44 4 -23 -1 -42 2 -42 8 -1 5 -2
13 -3 18 0 5 -4 13 -8 17 -4 3 -6 -3 -3 -15z"/>
<path d="M3805 390 c-3 -5 -1 -10 4 -10 6 0 11 5 11 10 0 6 -2 10 -4 10 -3 0
-8 -4 -11 -10z"/>
<path d="M5939 387 c6 -8 9 -16 6 -19 -3 -2 1 -5 9 -5 11 0 12 4 3 19 -7 10
-16 18 -21 18 -4 0 -3 -6 3 -13z"/>
<path d="M6025 312 l0 -87 85 0 c109 1 120 5 120 50 0 20 -4 34 -9 30 -15 -9
-22 12 -8 24 8 6 13 21 12 33 -2 27 -58 49 -77 30 -8 -8 -5 -9 11 -5 43 11 73
-49 30 -62 -21 -7 -21 -7 2 -19 25 -12 34 -51 15 -63 -6 -4 -44 -8 -84 -9 -62
-1 -74 2 -83 17 -7 13 -6 19 1 19 6 0 8 5 5 10 -11 17 14 38 37 32 14 -3 19
-1 14 6 -3 6 -15 9 -26 7 -23 -4 -48 30 -27 38 8 4 8 6 -2 6 -12 1 -11 4 3 14
16 12 16 13 -1 14 -16 1 -18 -8 -18 -85z m20 9 c3 -5 2 -12 -3 -15 -5 -3 -9 1
-9 9 0 17 3 19 12 6z"/>
<path d="M6076 391 c8 -8 54 -7 54 1 0 5 -13 7 -30 6 -16 -1 -27 -4 -24 -7z"/>
<path d="M800 372 c0 -24 -19 -42 -39 -35 -13 4 -14 3 -1 -5 8 -6 18 -8 22 -6
4 3 8 -1 8 -8 0 -10 2 -10 9 0 9 15 20 15 39 0 8 -7 9 -15 2 -23 -12 -15 -21
-97 -10 -90 5 3 7 14 5 25 -3 15 4 22 28 30 27 8 28 9 5 6 -24 -3 -25 -1 -18
20 5 12 6 25 3 28 -6 6 12 10 30 7 4 0 7 3 7 9 0 6 -5 10 -11 10 -7 0 -9 10
-6 25 5 29 0 26 -17 -6 -12 -23 -42 -34 -52 -18 -3 5 -1 9 3 9 5 0 9 9 9 20 0
11 -4 20 -8 20 -4 0 -8 -8 -8 -18z m70 -36 c0 -2 -7 -7 -16 -10 -8 -3 -12 -2
-9 4 6 10 25 14 25 6z"/>
<path d="M1675 381 c3 -5 -4 -16 -15 -24 -19 -13 -14 -14 49 -14 38 1 68 4 66
7 -2 4 -27 5 -55 4 -38 -1 -49 1 -41 9 14 14 14 27 0 27 -5 0 -8 -4 -4 -9z"/>
<path d="M2832 375 c2 -12 -2 -19 -9 -17 -7 1 -13 -2 -13 -8 0 -5 5 -10 10
-10 6 0 10 -7 10 -15 0 -8 5 -15 10 -15 6 0 9 6 8 13 -2 7 12 13 37 15 22 2
43 7 47 11 5 4 -8 5 -29 3 -29 -4 -40 0 -55 19 -17 22 -18 22 -16 4z m18 -25
c0 -5 -5 -10 -11 -10 -5 0 -7 5 -4 10 3 6 8 10 11 10 2 0 4 -4 4 -10z"/>
<path d="M3134 340 c0 -22 3 -40 6 -40 4 0 7 18 7 40 0 22 -3 40 -6 40 -4 0
-7 -18 -7 -40z"/>
<path d="M1166 338 c-6 -30 -3 -105 5 -113 4 -3 6 26 6 65 -1 73 -4 85 -11 48z"/>
<path d="M1262 347 c-12 -6 -22 -15 -23 -21 0 -6 -2 -19 -4 -28 -2 -10 1 -18
6 -18 9 0 13 14 10 37 -3 25 64 37 114 20 15 -5 20 -16 20 -42 0 -19 -4 -35
-8 -35 -5 0 -5 -4 -2 -10 3 -5 0 -10 -7 -10 -8 0 -6 -4 4 -11 14 -8 15 -13 6
-28 -8 -14 -22 -18 -58 -16 -26 1 -52 5 -57 8 -5 3 -10 0 -10 -7 0 -17 111
-16 129 2 14 14 20 160 6 168 -4 3 -8 0 -8 -6 0 -6 -5 -8 -12 -4 -18 11 -81
12 -106 1z"/>
<path d="M1504 348 c-3 -5 6 -7 19 -4 42 7 62 -15 62 -71 0 -28 4 -46 10 -43
6 3 8 10 6 15 -2 6 -4 29 -4 52 -1 24 -5 41 -11 40 -6 -1 -10 3 -9 8 2 13 -65
16 -73 3z"/>
<path d="M1930 333 c-7 -15 -14 -34 -16 -40 -4 -22 6 -14 16 12 8 22 32 36 29
18 -1 -5 0 -10 1 -13 1 -3 3 -12 5 -20 12 -58 35 -84 51 -58 5 8 2 9 -9 5 -11
-4 -17 -1 -17 8 0 7 -5 26 -12 42 -6 15 -12 30 -12 33 -1 3 -6 13 -12 23 -9
16 -12 15 -24 -10z"/>
<path d="M2127 336 c-26 -26 -29 -67 -6 -74 11 -3 11 -1 -1 7 -16 11 -13 12
39 15 16 0 32 4 35 7 4 3 -6 5 -21 4 -41 -3 -58 13 -37 36 9 10 21 16 25 13 5
-3 9 0 9 5 0 18 -18 12 -43 -13z"/>
<path d="M2185 350 c3 -5 11 -7 18 -5 20 7 48 -20 41 -39 -4 -10 -13 -15 -20
-12 -8 3 -14 1 -14 -4 0 -5 10 -9 23 -8 27 2 35 39 12 58 -18 15 -68 23 -60
10z"/>
<path d="M2329 353 c-6 -33 -4 -125 1 -128 4 -3 8 27 7 65 0 39 -2 70 -3 70
-2 0 -5 -3 -5 -7z"/>
<path d="M2422 349 c-13 -5 -20 -13 -17 -19 3 -5 2 -10 -3 -10 -11 0 -10 -76
1 -87 15 -14 81 -19 114 -9 16 5 21 3 19 -8 -1 -9 -5 -18 -9 -22 -11 -11 -79
-13 -106 -3 -24 8 -25 8 -7 -5 25 -20 107 -17 123 4 12 17 16 57 13 130 -1 35
-3 40 -10 24 -4 -11 -7 -37 -5 -57 6 -53 -15 -63 -110 -55 -15 1 -18 8 -17 43
2 47 7 65 19 66 52 5 80 4 91 -4 8 -6 12 -6 12 2 0 12 -1 13 -50 16 -19 1 -46
-2 -58 -6z"/>
<path d="M2660 352 c0 -5 7 -9 15 -9 8 0 15 4 15 9 0 4 -7 8 -15 8 -8 0 -15
-4 -15 -8z"/>
<path d="M2715 343 c11 -7 22 -13 26 -13 4 0 5 -22 3 -50 -2 -29 1 -52 8 -56
7 -4 8 -3 4 5 -4 6 -2 18 4 26 7 8 8 15 3 15 -5 0 -8 13 -7 29 2 37 -9 54 -37
56 -21 2 -21 1 -4 -12z"/>
<path d="M3217 353 c-4 -3 -7 -30 -7 -59 0 -42 4 -55 19 -64 25 -13 41 -13 41
1 0 5 -5 7 -10 4 -23 -14 -37 15 -35 70 1 30 1 55 0 55 -1 0 -5 -3 -8 -7z"/>
<path d="M3348 353 c-8 -17 -2 -123 6 -125 12 -4 15 41 4 48 -5 3 -4 12 2 19
8 10 8 15 -1 20 -8 6 -7 10 2 16 11 7 11 9 1 9 -7 0 -10 5 -7 10 3 6 4 10 1
10 -3 0 -6 -3 -8 -7z"/>
<path d="M3448 352 c-10 -2 -18 -8 -18 -13 0 -6 -4 -7 -10 -4 -6 4 -10 -5 -10
-19 0 -14 5 -26 11 -26 6 0 9 7 5 15 -6 17 30 46 50 38 8 -3 14 -1 14 4 0 10
-13 12 -42 5z"/>
<path d="M3504 353 c4 -4 12 -8 19 -9 7 -1 21 -5 32 -10 14 -5 17 -4 10 4 -5
6 -23 13 -39 16 -16 3 -26 2 -22 -1z"/>
<path d="M3808 343 c-4 -52 -3 -115 3 -119 4 -2 6 4 4 13 -1 10 3 24 9 32 8
11 8 13 -1 8 -9 -6 -11 4 -6 38 3 25 2 45 -1 45 -3 0 -7 -8 -8 -17z"/>
<path d="M3910 351 c0 -3 18 -7 40 -7 23 -1 48 -9 60 -19 24 -21 27 -11 4 12
-15 16 -104 27 -104 14z"/>
<path d="M4093 332 c-13 -14 -21 -27 -18 -30 2 -3 13 6 24 19 13 16 30 24 55
24 20 1 36 -2 36 -5 0 -4 7 -7 15 -7 18 0 20 17 3 18 -80 7 -93 5 -115 -19z"/>
<path d="M4530 351 c0 -4 12 -7 28 -6 32 2 74 -14 66 -26 -3 -5 0 -9 5 -9 15
0 14 15 -3 29 -16 14 -96 24 -96 12z"/>
<path d="M4725 349 c-3 -4 -13 -6 -23 -4 -15 3 -18 -5 -17 -59 0 -38 4 -63 11
-63 6 0 11 6 11 14 0 7 -5 13 -10 13 -5 0 -4 7 3 15 9 11 10 19 1 28 -16 20
26 53 66 52 18 -1 30 1 27 4 -9 9 -64 9 -69 0z"/>
<path d="M5055 344 c-9 -9 -14 -23 -11 -30 3 -8 1 -14 -4 -14 -5 0 -16 -16
-25 -36 -12 -30 -17 -33 -29 -22 -8 7 -13 15 -13 18 3 11 -26 70 -35 70 -5 0
-6 5 -3 10 3 6 1 10 -4 10 -16 0 -13 -14 9 -40 11 -12 17 -27 14 -31 -3 -5 0
-9 7 -9 7 0 9 -3 6 -7 -4 -3 2 -16 14 -29 l20 -22 -30 -13 c-17 -8 -31 -17
-31 -22 0 -4 8 -3 19 2 10 6 21 8 24 5 3 -3 17 17 31 45 14 28 22 51 18 51 -4
0 1 5 10 11 10 5 15 16 12 24 -4 8 -2 15 4 15 5 0 12 7 16 15 7 19 1 19 -19
-1z"/>
<path d="M5170 351 c0 -4 12 -7 28 -6 32 2 74 -14 66 -26 -3 -5 0 -9 5 -9 15
0 14 15 -3 29 -16 14 -96 24 -96 12z"/>
<path d="M5565 350 c-11 -4 -23 -6 -27 -3 -5 2 -7 -7 -6 -21 1 -15 6 -26 11
-26 5 0 7 6 4 14 -6 16 28 33 61 30 39 -3 40 -4 45 -21 4 -14 5 -12 6 5 0 12
-5 22 -11 23 -7 1 -24 2 -38 3 -14 2 -35 0 -45 -4z"/>
<path d="M1834 328 c9 -12 16 -30 16 -40 0 -10 5 -18 10 -18 6 0 9 -3 9 -7 -4
-26 3 -41 18 -39 18 3 39 46 23 46 -10 0 -14 -15 -10 -35 2 -14 -23 12 -27 27
-9 45 -30 88 -41 88 -10 0 -10 -5 2 -22z"/>
<path d="M2046 335 c4 -8 7 -15 9 -15 2 0 5 7 9 15 3 9 0 15 -9 15 -9 0 -12
-6 -9 -15z"/>
<path d="M3881 327 c-9 -24 -8 -84 3 -94 7 -8 103 -17 96 -10 -3 4 -23 7 -44
9 -51 3 -62 31 -41 99 9 27 -4 24 -14 -4z"/>
<path d="M4492 337 c-14 -16 -10 -80 5 -99 13 -16 100 -23 120 -11 6 5 -14 7
-45 6 -33 -1 -61 4 -67 10 -16 19 -13 81 4 94 9 7 11 13 5 13 -6 0 -16 -6 -22
-13z"/>
<path d="M5133 336 c-14 -17 -12 -78 4 -98 13 -16 100 -23 120 -11 6 5 -14 7
-44 6 -31 0 -61 4 -68 10 -15 15 -13 70 4 91 16 19 1 21 -16 2z"/>
<path d="M5325 300 c2 -50 10 -70 27 -70 7 0 7 4 -1 13 -6 8 -8 17 -4 20 3 4
1 7 -5 7 -7 0 -12 5 -12 11 0 5 6 7 13 3 9 -6 9 -5 0 8 -7 8 -10 18 -6 22 12
12 11 33 -2 33 -8 0 -11 -16 -10 -47z"/>
<path d="M5464 320 c1 -16 6 -33 11 -37 4 -4 5 -2 1 5 -4 7 -2 12 6 12 10 0
10 2 -1 9 -9 6 -10 11 -2 15 12 8 6 26 -9 26 -5 0 -7 -13 -6 -30z"/>
<path d="M4805 331 c-3 -5 -1 -12 5 -16 5 -3 10 1 10 9 0 18 -6 21 -15 7z"/>
<path d="M1673 306 c0 -14 3 -26 8 -26 11 0 11 21 0 39 -6 9 -8 5 -8 -13z"/>
<path d="M6110 318 c0 -5 11 -8 25 -8 14 0 25 3 25 8 0 4 -11 7 -25 7 -14 0
-25 -3 -25 -7z"/>
<path d="M6282 290 c0 -22 4 -40 9 -40 6 0 8 -4 4 -9 -3 -5 -1 -12 4 -15 16
-11 22 11 6 24 -10 8 -13 24 -11 46 3 19 1 34 -4 34 -4 0 -8 -18 -8 -40z"/>
<path d="M2030 310 c0 -5 5 -10 11 -10 5 0 7 5 4 10 -3 6 -8 10 -11 10 -2 0
-4 -4 -4 -10z"/>
<path d="M3643 307 c4 -10 1 -17 -6 -17 -8 0 -9 -3 -1 -8 6 -4 10 -17 9 -29
-1 -12 2 -20 6 -17 4 2 11 0 14 -6 9 -14 66 -5 76 12 12 18 11 28 -2 28 -5 0
-8 -3 -6 -7 7 -11 -14 -28 -40 -31 -26 -4 -34 8 -35 48 -1 17 -6 34 -11 37 -6
4 -8 0 -4 -10z"/>
<path d="M4216 307 c4 -11 -5 -14 -38 -14 -72 0 -114 -4 -99 -10 9 -4 10 -8 2
-12 -15 -9 24 -51 47 -51 12 0 10 4 -7 13 -57 28 -24 56 61 51 36 -2 48 1 48
11 0 8 -4 17 -10 20 -5 3 -7 0 -4 -8z"/>
<path d="M783 288 c1 -7 -6 -13 -15 -13 -9 0 -20 -4 -25 -9 -4 -5 -3 -6 5 -2
7 4 12 2 12 -5 0 -8 4 -8 15 1 19 16 20 2 1 -19 -11 -12 -12 -21 -5 -31 9 -13
10 -12 5 2 -3 11 4 25 21 38 18 14 21 20 10 20 -10 0 -14 6 -11 15 4 8 1 15
-5 15 -6 0 -10 -6 -8 -12z"/>
<path d="M2836 273 c1 -16 2 -31 3 -34 2 -13 50 -19 73 -10 15 5 24 18 25 32
2 18 0 20 -7 9 -5 -8 -7 -17 -4 -21 6 -10 -41 -20 -60 -13 -15 6 -20 23 -17
52 1 6 -2 12 -7 12 -5 0 -8 -12 -6 -27z"/>
<path d="M3446 289 c2 -3 18 -5 36 -4 18 1 39 -3 46 -8 9 -7 11 -6 7 5 -4 11
-19 15 -50 14 -24 0 -42 -4 -39 -7z"/>
<path d="M3549 283 c9 -19 8 -25 -11 -43 -14 -13 -17 -20 -8 -18 36 8 47 46
19 72 -9 8 -9 6 0 -11z"/>
<path d="M4629 298 c-6 -13 -5 -48 1 -48 12 0 19 39 9 46 -5 3 -10 4 -10 2z"/>
<path d="M5266 293 c-11 -11 -7 -43 6 -43 6 0 8 3 5 7 -4 3 -2 12 4 19 10 13
-3 29 -15 17z"/>
<path d="M2016 274 c-8 -22 -8 -24 6 -24 6 0 8 3 5 7 -4 3 1 12 11 19 15 12
15 13 1 14 -9 0 -20 -7 -23 -16z"/>
<path d="M2604 268 c3 -13 5 -29 5 -36 1 -7 6 -10 11 -7 8 5 8 11 0 20 -8 9
-8 15 0 20 15 9 12 25 -5 25 -10 0 -14 -7 -11 -22z"/>
<path d="M2987 283 c-2 -5 -1 -19 3 -33 5 -23 6 -24 14 -5 4 12 3 21 -3 23 -6
2 -9 8 -5 13 3 5 3 9 0 9 -3 0 -7 -3 -9 -7z"/>
<path d="M3135 270 c4 -12 2 -20 -5 -20 -6 0 -8 -5 -4 -11 4 -8 0 -9 -15 -4
-11 3 -21 2 -21 -3 0 -15 40 -9 50 8 13 20 12 50 -1 50 -6 0 -8 -9 -4 -20z"/>
<path d="M5532 255 c0 -19 3 -33 7 -31 10 7 12 66 2 66 -5 0 -9 -16 -9 -35z"/>
<path d="M1769 270 c-1 -5 -2 -16 -3 -22 -1 -8 -13 -12 -29 -11 -15 1 -27 -2
-27 -6 0 -10 46 -8 56 2 9 9 16 47 9 47 -3 0 -6 -4 -6 -10z"/>
<path d="M6485 270 c-3 -5 -3 -10 2 -10 23 0 -42 -31 -67 -32 -17 -1 -30 -5
-30 -9 0 -4 10 -6 23 -4 57 11 77 17 78 23 0 4 2 15 4 25 4 19 -1 22 -10 7z"/>
<path d="M1238 263 c6 -2 10 -9 7 -13 -7 -11 32 -33 48 -26 7 2 4 5 -5 5 -10
1 -22 10 -28 21 -6 11 -16 20 -23 19 -9 0 -9 -2 1 -6z"/>
<path d="M1674 253 c2 -9 8 -19 14 -21 6 -2 8 5 5 17 -6 25 -22 28 -19 4z"/>
<path d="M5460 251 c0 -11 5 -23 10 -26 6 -3 10 1 10 9 0 9 0 19 1 23 0 4 -4
9 -10 11 -6 2 -11 -5 -11 -17z"/>
<path d="M5767 257 c-9 -24 23 -38 86 -38 62 -1 83 3 99 19 16 16 -3 16 -35
-1 -15 -8 -37 -13 -49 -11 -13 1 -35 3 -49 3 -17 1 -29 9 -36 23 -8 19 -10 19
-16 5z"/>
<path d="M4008 249 c-19 -11 -24 -29 -8 -29 5 0 14 9 20 20 12 23 12 23 -12 9z"/>
<path d="M4212 248 c2 -8 -9 -14 -29 -16 -18 -2 -33 -7 -33 -11 0 -4 13 -6 30
-3 34 5 57 26 40 37 -6 4 -9 1 -8 -7z"/>
<path d="M4370 240 c0 -11 4 -20 8 -20 4 0 8 9 8 20 0 11 -4 20 -8 20 -4 0 -8
-9 -8 -20z"/>
<path d="M2119 237 c16 -21 127 -22 134 -2 4 8 2 15 -3 15 -6 0 -10 -5 -10
-11 0 -6 -22 -9 -55 -8 -30 1 -55 6 -55 11 0 4 -5 8 -11 8 -8 0 -8 -4 0 -13z"/>
<path d="M3420 235 c8 -10 27 -14 54 -13 l41 1 -42 4 c-24 2 -43 8 -43 14 0 5
-5 9 -11 9 -8 0 -8 -5 1 -15z"/>
<path d="M1335 231 c-3 -6 -11 -9 -16 -6 -5 4 -9 1 -9 -4 0 -13 10 -14 30 -1
8 5 12 12 8 15 -3 4 -9 1 -13 -4z"/>
<path d="M3010 230 c0 -5 16 -8 36 -8 19 0 34 2 31 4 -8 8 -67 11 -67 4z"/>
<path d="M3300 230 c-23 -7 -23 -8 -3 -9 12 -1 25 4 28 9 3 6 5 10 3 9 -2 -1
-14 -5 -28 -9z"/>
<path d="M5370 228 c0 -5 15 -8 34 -8 19 0 37 3 39 8 3 4 -12 7 -34 7 -21 0
-39 -3 -39 -7z"/>
<path d="M6330 221 c0 -4 11 -6 25 -3 14 2 25 6 25 8 0 2 -11 4 -25 4 -14 0
-25 -4 -25 -9z"/>
</g>
</svg>
